G75*
%MOIN*%
%OFA0B0*%
%FSLAX25Y25*%
%IPPOS*%
%LPD*%
%AMOC8*
5,1,8,0,0,1.08239X$1,22.5*
%
%ADD10R,0.05118X0.05906*%
%ADD11R,0.05906X0.05118*%
%ADD12R,0.03898X0.02717*%
%ADD13R,0.05512X0.03937*%
%ADD14OC8,0.06000*%
%ADD15C,0.05937*%
%ADD16C,0.07400*%
%ADD17R,0.07480X0.07480*%
%ADD18R,0.07677X0.01575*%
%ADD19C,0.00197*%
%ADD20C,0.00157*%
%ADD21R,0.02165X0.03937*%
%ADD22C,0.01000*%
%ADD23C,0.01600*%
%ADD24C,0.03962*%
%ADD25C,0.03600*%
D10*
X0064960Y0159500D03*
X0072440Y0159500D03*
D11*
X0053700Y0152240D03*
X0053700Y0144760D03*
X0043700Y0152760D03*
X0043700Y0160240D03*
X0034700Y0160240D03*
X0034700Y0152760D03*
X0009700Y0150240D03*
X0009700Y0142760D03*
D12*
X0016582Y0142760D03*
X0016582Y0150240D03*
X0026779Y0150240D03*
X0026779Y0146500D03*
X0026779Y0142760D03*
D13*
X0065369Y0144760D03*
X0065369Y0152240D03*
X0074031Y0148500D03*
D14*
X0083700Y0158500D03*
X0042700Y0142500D03*
D15*
X0043669Y0119500D02*
X0037731Y0119500D01*
X0037731Y0109500D02*
X0043669Y0109500D01*
X0043669Y0099500D02*
X0037731Y0099500D01*
X0037731Y0089500D02*
X0043669Y0089500D01*
X0043669Y0079500D02*
X0037731Y0079500D01*
X0037731Y0069500D02*
X0043669Y0069500D01*
X0043669Y0059500D02*
X0037731Y0059500D01*
X0037731Y0049500D02*
X0043669Y0049500D01*
X0043669Y0039500D02*
X0037731Y0039500D01*
X0037731Y0029500D02*
X0043669Y0029500D01*
X0043669Y0019500D02*
X0037731Y0019500D01*
X0037731Y0009500D02*
X0043669Y0009500D01*
X0097731Y0009500D02*
X0103669Y0009500D01*
X0103669Y0019500D02*
X0097731Y0019500D01*
X0097731Y0029500D02*
X0103669Y0029500D01*
X0103669Y0039500D02*
X0097731Y0039500D01*
X0097731Y0049500D02*
X0103669Y0049500D01*
X0103669Y0059500D02*
X0097731Y0059500D01*
X0097731Y0069500D02*
X0103669Y0069500D01*
X0103669Y0079500D02*
X0097731Y0079500D01*
X0097731Y0089500D02*
X0103669Y0089500D01*
X0103669Y0099500D02*
X0097731Y0099500D01*
X0097731Y0109500D02*
X0103669Y0109500D01*
X0103669Y0119500D02*
X0097731Y0119500D01*
D16*
X0014700Y0114500D03*
X0014700Y0104500D03*
X0014700Y0088500D03*
X0014700Y0078500D03*
X0014700Y0062500D03*
X0014700Y0052500D03*
X0014700Y0037500D03*
X0014700Y0027500D03*
D17*
X0106100Y0128700D03*
X0106100Y0159802D03*
D18*
X0094486Y0149369D03*
X0094486Y0146810D03*
X0094486Y0144251D03*
X0094486Y0141692D03*
X0094486Y0139133D03*
D19*
X0069139Y0115726D02*
X0067367Y0115726D01*
X0069139Y0115726D02*
X0069139Y0113560D01*
X0067367Y0113560D01*
X0067367Y0115726D01*
X0067367Y0113756D02*
X0069139Y0113756D01*
X0069139Y0113952D02*
X0067367Y0113952D01*
X0067367Y0114148D02*
X0069139Y0114148D01*
X0069139Y0114344D02*
X0067367Y0114344D01*
X0067367Y0114540D02*
X0069139Y0114540D01*
X0069139Y0114736D02*
X0067367Y0114736D01*
X0067367Y0114932D02*
X0069139Y0114932D01*
X0069139Y0115128D02*
X0067367Y0115128D01*
X0067367Y0115324D02*
X0069139Y0115324D01*
X0069139Y0115520D02*
X0067367Y0115520D01*
X0067367Y0115716D02*
X0069139Y0115716D01*
X0069139Y0108640D02*
X0067367Y0108640D01*
X0069139Y0108640D02*
X0069139Y0106474D01*
X0067367Y0106474D01*
X0067367Y0108640D01*
X0067367Y0106670D02*
X0069139Y0106670D01*
X0069139Y0106866D02*
X0067367Y0106866D01*
X0067367Y0107062D02*
X0069139Y0107062D01*
X0069139Y0107258D02*
X0067367Y0107258D01*
X0067367Y0107454D02*
X0069139Y0107454D01*
X0069139Y0107650D02*
X0067367Y0107650D01*
X0067367Y0107846D02*
X0069139Y0107846D01*
X0069139Y0108042D02*
X0067367Y0108042D01*
X0067367Y0108238D02*
X0069139Y0108238D01*
X0069139Y0108434D02*
X0067367Y0108434D01*
X0067367Y0108630D02*
X0069139Y0108630D01*
X0063233Y0108640D02*
X0061461Y0108640D01*
X0063233Y0108640D02*
X0063233Y0106474D01*
X0061461Y0106474D01*
X0061461Y0108640D01*
X0061461Y0106670D02*
X0063233Y0106670D01*
X0063233Y0106866D02*
X0061461Y0106866D01*
X0061461Y0107062D02*
X0063233Y0107062D01*
X0063233Y0107258D02*
X0061461Y0107258D01*
X0061461Y0107454D02*
X0063233Y0107454D01*
X0063233Y0107650D02*
X0061461Y0107650D01*
X0061461Y0107846D02*
X0063233Y0107846D01*
X0063233Y0108042D02*
X0061461Y0108042D01*
X0061461Y0108238D02*
X0063233Y0108238D01*
X0063233Y0108434D02*
X0061461Y0108434D01*
X0061461Y0108630D02*
X0063233Y0108630D01*
X0063233Y0115726D02*
X0061461Y0115726D01*
X0063233Y0115726D02*
X0063233Y0113560D01*
X0061461Y0113560D01*
X0061461Y0115726D01*
X0061461Y0113756D02*
X0063233Y0113756D01*
X0063233Y0113952D02*
X0061461Y0113952D01*
X0061461Y0114148D02*
X0063233Y0114148D01*
X0063233Y0114344D02*
X0061461Y0114344D01*
X0061461Y0114540D02*
X0063233Y0114540D01*
X0063233Y0114736D02*
X0061461Y0114736D01*
X0061461Y0114932D02*
X0063233Y0114932D01*
X0063233Y0115128D02*
X0061461Y0115128D01*
X0061461Y0115324D02*
X0063233Y0115324D01*
X0063233Y0115520D02*
X0061461Y0115520D01*
X0061461Y0115716D02*
X0063233Y0115716D01*
X0063061Y0043926D02*
X0064833Y0043926D01*
X0064833Y0041760D01*
X0063061Y0041760D01*
X0063061Y0043926D01*
X0063061Y0041956D02*
X0064833Y0041956D01*
X0064833Y0042152D02*
X0063061Y0042152D01*
X0063061Y0042348D02*
X0064833Y0042348D01*
X0064833Y0042544D02*
X0063061Y0042544D01*
X0063061Y0042740D02*
X0064833Y0042740D01*
X0064833Y0042936D02*
X0063061Y0042936D01*
X0063061Y0043132D02*
X0064833Y0043132D01*
X0064833Y0043328D02*
X0063061Y0043328D01*
X0063061Y0043524D02*
X0064833Y0043524D01*
X0064833Y0043720D02*
X0063061Y0043720D01*
X0063061Y0043916D02*
X0064833Y0043916D01*
X0068967Y0043926D02*
X0070739Y0043926D01*
X0070739Y0041760D01*
X0068967Y0041760D01*
X0068967Y0043926D01*
X0068967Y0041956D02*
X0070739Y0041956D01*
X0070739Y0042152D02*
X0068967Y0042152D01*
X0068967Y0042348D02*
X0070739Y0042348D01*
X0070739Y0042544D02*
X0068967Y0042544D01*
X0068967Y0042740D02*
X0070739Y0042740D01*
X0070739Y0042936D02*
X0068967Y0042936D01*
X0068967Y0043132D02*
X0070739Y0043132D01*
X0070739Y0043328D02*
X0068967Y0043328D01*
X0068967Y0043524D02*
X0070739Y0043524D01*
X0070739Y0043720D02*
X0068967Y0043720D01*
X0068967Y0043916D02*
X0070739Y0043916D01*
X0070739Y0036840D02*
X0068967Y0036840D01*
X0070739Y0036840D02*
X0070739Y0034674D01*
X0068967Y0034674D01*
X0068967Y0036840D01*
X0068967Y0034870D02*
X0070739Y0034870D01*
X0070739Y0035066D02*
X0068967Y0035066D01*
X0068967Y0035262D02*
X0070739Y0035262D01*
X0070739Y0035458D02*
X0068967Y0035458D01*
X0068967Y0035654D02*
X0070739Y0035654D01*
X0070739Y0035850D02*
X0068967Y0035850D01*
X0068967Y0036046D02*
X0070739Y0036046D01*
X0070739Y0036242D02*
X0068967Y0036242D01*
X0068967Y0036438D02*
X0070739Y0036438D01*
X0070739Y0036634D02*
X0068967Y0036634D01*
X0068967Y0036830D02*
X0070739Y0036830D01*
X0064833Y0036840D02*
X0063061Y0036840D01*
X0064833Y0036840D02*
X0064833Y0034674D01*
X0063061Y0034674D01*
X0063061Y0036840D01*
X0063061Y0034870D02*
X0064833Y0034870D01*
X0064833Y0035066D02*
X0063061Y0035066D01*
X0063061Y0035262D02*
X0064833Y0035262D01*
X0064833Y0035458D02*
X0063061Y0035458D01*
X0063061Y0035654D02*
X0064833Y0035654D01*
X0064833Y0035850D02*
X0063061Y0035850D01*
X0063061Y0036046D02*
X0064833Y0036046D01*
X0064833Y0036242D02*
X0063061Y0036242D01*
X0063061Y0036438D02*
X0064833Y0036438D01*
X0064833Y0036634D02*
X0063061Y0036634D01*
X0063061Y0036830D02*
X0064833Y0036830D01*
D20*
X0066191Y0036860D02*
X0067609Y0036860D01*
X0067609Y0034654D01*
X0066191Y0034654D01*
X0066191Y0036860D01*
X0066191Y0034810D02*
X0067609Y0034810D01*
X0067609Y0034966D02*
X0066191Y0034966D01*
X0066191Y0035122D02*
X0067609Y0035122D01*
X0067609Y0035278D02*
X0066191Y0035278D01*
X0066191Y0035434D02*
X0067609Y0035434D01*
X0067609Y0035590D02*
X0066191Y0035590D01*
X0066191Y0035746D02*
X0067609Y0035746D01*
X0067609Y0035902D02*
X0066191Y0035902D01*
X0066191Y0036058D02*
X0067609Y0036058D01*
X0067609Y0036214D02*
X0066191Y0036214D01*
X0066191Y0036370D02*
X0067609Y0036370D01*
X0067609Y0036526D02*
X0066191Y0036526D01*
X0066191Y0036682D02*
X0067609Y0036682D01*
X0067609Y0036838D02*
X0066191Y0036838D01*
X0066191Y0043946D02*
X0067609Y0043946D01*
X0067609Y0041740D01*
X0066191Y0041740D01*
X0066191Y0043946D01*
X0066191Y0041896D02*
X0067609Y0041896D01*
X0067609Y0042052D02*
X0066191Y0042052D01*
X0066191Y0042208D02*
X0067609Y0042208D01*
X0067609Y0042364D02*
X0066191Y0042364D01*
X0066191Y0042520D02*
X0067609Y0042520D01*
X0067609Y0042676D02*
X0066191Y0042676D01*
X0066191Y0042832D02*
X0067609Y0042832D01*
X0067609Y0042988D02*
X0066191Y0042988D01*
X0066191Y0043144D02*
X0067609Y0043144D01*
X0067609Y0043300D02*
X0066191Y0043300D01*
X0066191Y0043456D02*
X0067609Y0043456D01*
X0067609Y0043612D02*
X0066191Y0043612D01*
X0066191Y0043768D02*
X0067609Y0043768D01*
X0067609Y0043924D02*
X0066191Y0043924D01*
X0066009Y0108660D02*
X0064591Y0108660D01*
X0066009Y0108660D02*
X0066009Y0106454D01*
X0064591Y0106454D01*
X0064591Y0108660D01*
X0064591Y0106610D02*
X0066009Y0106610D01*
X0066009Y0106766D02*
X0064591Y0106766D01*
X0064591Y0106922D02*
X0066009Y0106922D01*
X0066009Y0107078D02*
X0064591Y0107078D01*
X0064591Y0107234D02*
X0066009Y0107234D01*
X0066009Y0107390D02*
X0064591Y0107390D01*
X0064591Y0107546D02*
X0066009Y0107546D01*
X0066009Y0107702D02*
X0064591Y0107702D01*
X0064591Y0107858D02*
X0066009Y0107858D01*
X0066009Y0108014D02*
X0064591Y0108014D01*
X0064591Y0108170D02*
X0066009Y0108170D01*
X0066009Y0108326D02*
X0064591Y0108326D01*
X0064591Y0108482D02*
X0066009Y0108482D01*
X0066009Y0108638D02*
X0064591Y0108638D01*
X0064591Y0115746D02*
X0066009Y0115746D01*
X0066009Y0113540D01*
X0064591Y0113540D01*
X0064591Y0115746D01*
X0064591Y0113696D02*
X0066009Y0113696D01*
X0066009Y0113852D02*
X0064591Y0113852D01*
X0064591Y0114008D02*
X0066009Y0114008D01*
X0066009Y0114164D02*
X0064591Y0114164D01*
X0064591Y0114320D02*
X0066009Y0114320D01*
X0066009Y0114476D02*
X0064591Y0114476D01*
X0064591Y0114632D02*
X0066009Y0114632D01*
X0066009Y0114788D02*
X0064591Y0114788D01*
X0064591Y0114944D02*
X0066009Y0114944D01*
X0066009Y0115100D02*
X0064591Y0115100D01*
X0064591Y0115256D02*
X0066009Y0115256D01*
X0066009Y0115412D02*
X0064591Y0115412D01*
X0064591Y0115568D02*
X0066009Y0115568D01*
X0066009Y0115724D02*
X0064591Y0115724D01*
D21*
X0066300Y0076615D03*
X0062560Y0076615D03*
X0070040Y0076615D03*
X0070040Y0065985D03*
X0066300Y0065985D03*
X0062560Y0065985D03*
D22*
X0016700Y0142642D02*
X0016582Y0142760D01*
X0009700Y0142760D01*
X0009700Y0150240D02*
X0009700Y0157500D01*
X0016700Y0150358D02*
X0016582Y0150240D01*
X0026700Y0150319D02*
X0026779Y0150240D01*
X0026700Y0150319D02*
X0026700Y0157500D01*
X0034700Y0152760D02*
X0043700Y0152760D01*
D23*
X0004900Y0020500D02*
X0020900Y0004500D01*
X0071900Y0004500D01*
X0088700Y0020100D01*
X0088700Y0070700D01*
X0062500Y0070700D01*
X0062560Y0065985D01*
X0066300Y0065985D02*
X0066300Y0063500D01*
X0062900Y0059500D01*
X0070040Y0065985D02*
X0069853Y0042843D01*
X0066900Y0042843D02*
X0066900Y0039300D01*
X0071100Y0039300D01*
X0072900Y0038900D01*
X0073100Y0020500D01*
X0061700Y0009500D01*
X0040700Y0009500D01*
X0055300Y0027700D02*
X0048700Y0034500D01*
X0027100Y0034500D01*
X0024100Y0037500D01*
X0014700Y0037500D01*
X0014960Y0028500D02*
X0014700Y0027500D01*
X0004900Y0027500D01*
X0004900Y0020500D01*
X0004900Y0027500D02*
X0004900Y0052900D01*
X0014700Y0052500D01*
X0014700Y0062500D02*
X0023700Y0062500D01*
X0026100Y0060100D01*
X0026100Y0049700D01*
X0031300Y0044500D01*
X0060491Y0044700D01*
X0063947Y0042843D01*
X0063947Y0035757D02*
X0059043Y0035757D01*
X0056700Y0038100D01*
X0057700Y0030700D02*
X0048900Y0039500D01*
X0040700Y0039500D01*
X0040700Y0049500D02*
X0046900Y0049500D01*
X0054300Y0056900D01*
X0054300Y0108500D01*
X0056700Y0110900D01*
X0065300Y0110900D01*
X0065300Y0114643D01*
X0062347Y0114643D02*
X0014700Y0114500D01*
X0014700Y0104500D02*
X0004900Y0104500D01*
X0004900Y0078300D01*
X0014700Y0078500D01*
X0014700Y0088500D02*
X0019500Y0088500D01*
X0025500Y0094500D01*
X0049500Y0094500D01*
X0049900Y0094900D01*
X0049900Y0099300D01*
X0050500Y0100500D01*
X0062347Y0107557D02*
X0062560Y0107344D01*
X0062560Y0076615D01*
X0066300Y0076615D02*
X0066300Y0085100D01*
X0067500Y0086900D01*
X0073300Y0086900D01*
X0074900Y0090100D01*
X0074900Y0114700D01*
X0068253Y0114643D01*
X0068253Y0107557D02*
X0068300Y0104509D01*
X0070300Y0098900D01*
X0065300Y0096900D02*
X0065300Y0107557D01*
X0065300Y0096900D02*
X0066700Y0091100D01*
X0070125Y0076700D02*
X0076500Y0076700D01*
X0088700Y0070700D02*
X0088700Y0119500D01*
X0088700Y0139133D01*
X0074031Y0139133D01*
X0074031Y0148500D01*
X0074031Y0159500D01*
X0072440Y0159500D01*
X0065700Y0152500D02*
X0065700Y0152240D01*
X0065369Y0152240D01*
X0058700Y0152240D01*
X0058700Y0158500D01*
X0043700Y0158500D01*
X0043700Y0160240D01*
X0043700Y0152760D02*
X0042700Y0142500D01*
X0043700Y0152500D02*
X0043700Y0152760D01*
X0034700Y0152760D02*
X0034700Y0146500D01*
X0026779Y0146500D01*
X0034700Y0160240D02*
X0033700Y0161500D01*
X0015700Y0161500D01*
X0015700Y0150358D01*
X0016700Y0150358D01*
X0016700Y0142642D02*
X0016700Y0134500D01*
X0065369Y0134500D01*
X0065369Y0144760D01*
X0053700Y0144760D01*
X0053700Y0152240D02*
X0052700Y0152240D01*
X0052700Y0152500D01*
X0053700Y0152240D02*
X0055700Y0152240D01*
X0058700Y0152240D01*
X0055700Y0152240D02*
X0055700Y0152500D01*
X0058700Y0158500D02*
X0064960Y0159500D01*
X0086100Y0149569D02*
X0086100Y0149300D01*
X0086100Y0149569D02*
X0094486Y0149369D01*
X0094486Y0139133D02*
X0088700Y0139133D01*
X0088700Y0119500D02*
X0100700Y0119500D01*
X0070100Y0035909D02*
X0070100Y0027700D01*
X0055300Y0027700D01*
X0057700Y0030700D02*
X0066900Y0030700D01*
X0066900Y0035757D01*
X0069853Y0035757D02*
X0070100Y0035909D01*
X0004900Y0052900D02*
X0004900Y0078300D01*
X0005500Y0130700D02*
X0028500Y0130700D01*
X0015700Y0161500D02*
X0004700Y0161500D01*
X0004700Y0131500D01*
X0005500Y0130700D01*
D24*
X0028500Y0130700D03*
X0050500Y0100500D03*
X0066700Y0091100D03*
X0070300Y0098900D03*
X0076500Y0076700D03*
X0062900Y0059500D03*
X0056700Y0038100D03*
X0086100Y0149300D03*
D25*
X0058700Y0158500D03*
X0026700Y0157500D03*
X0009700Y0157500D03*
M02*
