%
M48
M72
T01C0.02000
T02C0.02165
T03C0.02362
T04C0.03937
T05C0.04000
%
T01
X9700Y157500
X26700Y157500
X58700Y158500
T02
X97635Y152125
X97635Y136377
T03
X86100Y149300
X70300Y98900
X66700Y91100
X76500Y76700
X62900Y59500
X56700Y38100
X50500Y100500
X28500Y130700
T04
X40700Y119500
X40700Y109500
X40700Y99500
X40700Y89500
X40700Y79500
X40700Y69500
X40700Y59500
X40700Y49500
X40700Y39500
X40700Y29500
X40700Y19500
X40700Y9500
X100700Y9500
X100700Y19500
X100700Y29500
X100700Y39500
X100700Y49500
X100700Y59500
X100700Y69500
X100700Y79500
X100700Y89500
X100700Y99500
X100700Y109500
X100700Y119500
T05
X14700Y27500
X14700Y37500
X14700Y52500
X14700Y62500
X14700Y78500
X14700Y88500
X14700Y104500
X14700Y114500
X42700Y142500
X83700Y158500
M30
