G75*
%MOIN*%
%OFA0B0*%
%FSLAX25Y25*%
%IPPOS*%
%LPD*%
%AMOC8*
5,1,8,0,0,1.08239X$1,22.5*
%
%ADD10R,0.05918X0.06706*%
%ADD11R,0.06706X0.05918*%
%ADD12R,0.04698X0.03517*%
%ADD13R,0.06312X0.04737*%
%ADD14OC8,0.06800*%
%ADD15C,0.06737*%
%ADD16C,0.08200*%
%ADD17R,0.08280X0.08280*%
%ADD18R,0.08477X0.02375*%
%ADD19C,0.02965*%
%ADD20C,0.00277*%
%ADD21C,0.00237*%
%ADD22R,0.02965X0.04737*%
%ADD23C,0.04762*%
%ADD24C,0.04400*%
D10*
X0064960Y0159500D03*
X0072440Y0159500D03*
D11*
X0053700Y0152240D03*
X0053700Y0144760D03*
X0043700Y0152760D03*
X0043700Y0160240D03*
X0034700Y0160240D03*
X0034700Y0152760D03*
X0009700Y0150240D03*
X0009700Y0142760D03*
D12*
X0016582Y0142760D03*
X0016582Y0150240D03*
X0026779Y0150240D03*
X0026779Y0146500D03*
X0026779Y0142760D03*
D13*
X0065369Y0144760D03*
X0065369Y0152240D03*
X0074031Y0148500D03*
D14*
X0083700Y0158500D03*
X0042700Y0142500D03*
D15*
X0043669Y0119500D02*
X0037731Y0119500D01*
X0037731Y0109500D02*
X0043669Y0109500D01*
X0043669Y0099500D02*
X0037731Y0099500D01*
X0037731Y0089500D02*
X0043669Y0089500D01*
X0043669Y0079500D02*
X0037731Y0079500D01*
X0037731Y0069500D02*
X0043669Y0069500D01*
X0043669Y0059500D02*
X0037731Y0059500D01*
X0037731Y0049500D02*
X0043669Y0049500D01*
X0043669Y0039500D02*
X0037731Y0039500D01*
X0037731Y0029500D02*
X0043669Y0029500D01*
X0043669Y0019500D02*
X0037731Y0019500D01*
X0037731Y0009500D02*
X0043669Y0009500D01*
X0097731Y0009500D02*
X0103669Y0009500D01*
X0103669Y0019500D02*
X0097731Y0019500D01*
X0097731Y0029500D02*
X0103669Y0029500D01*
X0103669Y0039500D02*
X0097731Y0039500D01*
X0097731Y0049500D02*
X0103669Y0049500D01*
X0103669Y0059500D02*
X0097731Y0059500D01*
X0097731Y0069500D02*
X0103669Y0069500D01*
X0103669Y0079500D02*
X0097731Y0079500D01*
X0097731Y0089500D02*
X0103669Y0089500D01*
X0103669Y0099500D02*
X0097731Y0099500D01*
X0097731Y0109500D02*
X0103669Y0109500D01*
X0103669Y0119500D02*
X0097731Y0119500D01*
D16*
X0014700Y0027500D03*
X0014700Y0037500D03*
X0014700Y0052500D03*
X0014700Y0062500D03*
X0014700Y0078500D03*
X0014700Y0088500D03*
X0014700Y0104500D03*
X0014700Y0114500D03*
D17*
X0106100Y0128700D03*
X0106100Y0159802D03*
D18*
X0094486Y0149369D03*
X0094486Y0146810D03*
X0094486Y0144251D03*
X0094486Y0141692D03*
X0094486Y0139133D03*
D19*
X0097635Y0136377D03*
X0097635Y0152125D03*
D20*
X0069499Y0116086D02*
X0067007Y0116086D01*
X0069499Y0116086D02*
X0069499Y0113200D01*
X0067007Y0113200D01*
X0067007Y0116086D01*
X0067007Y0113476D02*
X0069499Y0113476D01*
X0069499Y0113752D02*
X0067007Y0113752D01*
X0067007Y0114028D02*
X0069499Y0114028D01*
X0069499Y0114304D02*
X0067007Y0114304D01*
X0067007Y0114580D02*
X0069499Y0114580D01*
X0069499Y0114856D02*
X0067007Y0114856D01*
X0067007Y0115132D02*
X0069499Y0115132D01*
X0069499Y0115408D02*
X0067007Y0115408D01*
X0067007Y0115684D02*
X0069499Y0115684D01*
X0069499Y0115960D02*
X0067007Y0115960D01*
X0063593Y0116086D02*
X0061101Y0116086D01*
X0063593Y0116086D02*
X0063593Y0113200D01*
X0061101Y0113200D01*
X0061101Y0116086D01*
X0061101Y0113476D02*
X0063593Y0113476D01*
X0063593Y0113752D02*
X0061101Y0113752D01*
X0061101Y0114028D02*
X0063593Y0114028D01*
X0063593Y0114304D02*
X0061101Y0114304D01*
X0061101Y0114580D02*
X0063593Y0114580D01*
X0063593Y0114856D02*
X0061101Y0114856D01*
X0061101Y0115132D02*
X0063593Y0115132D01*
X0063593Y0115408D02*
X0061101Y0115408D01*
X0061101Y0115684D02*
X0063593Y0115684D01*
X0063593Y0115960D02*
X0061101Y0115960D01*
X0061101Y0109000D02*
X0063593Y0109000D01*
X0063593Y0106114D01*
X0061101Y0106114D01*
X0061101Y0109000D01*
X0061101Y0106390D02*
X0063593Y0106390D01*
X0063593Y0106666D02*
X0061101Y0106666D01*
X0061101Y0106942D02*
X0063593Y0106942D01*
X0063593Y0107218D02*
X0061101Y0107218D01*
X0061101Y0107494D02*
X0063593Y0107494D01*
X0063593Y0107770D02*
X0061101Y0107770D01*
X0061101Y0108046D02*
X0063593Y0108046D01*
X0063593Y0108322D02*
X0061101Y0108322D01*
X0061101Y0108598D02*
X0063593Y0108598D01*
X0063593Y0108874D02*
X0061101Y0108874D01*
X0067007Y0109000D02*
X0069499Y0109000D01*
X0069499Y0106114D01*
X0067007Y0106114D01*
X0067007Y0109000D01*
X0067007Y0106390D02*
X0069499Y0106390D01*
X0069499Y0106666D02*
X0067007Y0106666D01*
X0067007Y0106942D02*
X0069499Y0106942D01*
X0069499Y0107218D02*
X0067007Y0107218D01*
X0067007Y0107494D02*
X0069499Y0107494D01*
X0069499Y0107770D02*
X0067007Y0107770D01*
X0067007Y0108046D02*
X0069499Y0108046D01*
X0069499Y0108322D02*
X0067007Y0108322D01*
X0067007Y0108598D02*
X0069499Y0108598D01*
X0069499Y0108874D02*
X0067007Y0108874D01*
X0068607Y0044286D02*
X0071099Y0044286D01*
X0071099Y0041400D01*
X0068607Y0041400D01*
X0068607Y0044286D01*
X0068607Y0041676D02*
X0071099Y0041676D01*
X0071099Y0041952D02*
X0068607Y0041952D01*
X0068607Y0042228D02*
X0071099Y0042228D01*
X0071099Y0042504D02*
X0068607Y0042504D01*
X0068607Y0042780D02*
X0071099Y0042780D01*
X0071099Y0043056D02*
X0068607Y0043056D01*
X0068607Y0043332D02*
X0071099Y0043332D01*
X0071099Y0043608D02*
X0068607Y0043608D01*
X0068607Y0043884D02*
X0071099Y0043884D01*
X0071099Y0044160D02*
X0068607Y0044160D01*
X0065193Y0044286D02*
X0062701Y0044286D01*
X0065193Y0044286D02*
X0065193Y0041400D01*
X0062701Y0041400D01*
X0062701Y0044286D01*
X0062701Y0041676D02*
X0065193Y0041676D01*
X0065193Y0041952D02*
X0062701Y0041952D01*
X0062701Y0042228D02*
X0065193Y0042228D01*
X0065193Y0042504D02*
X0062701Y0042504D01*
X0062701Y0042780D02*
X0065193Y0042780D01*
X0065193Y0043056D02*
X0062701Y0043056D01*
X0062701Y0043332D02*
X0065193Y0043332D01*
X0065193Y0043608D02*
X0062701Y0043608D01*
X0062701Y0043884D02*
X0065193Y0043884D01*
X0065193Y0044160D02*
X0062701Y0044160D01*
X0062701Y0037200D02*
X0065193Y0037200D01*
X0065193Y0034314D01*
X0062701Y0034314D01*
X0062701Y0037200D01*
X0062701Y0034590D02*
X0065193Y0034590D01*
X0065193Y0034866D02*
X0062701Y0034866D01*
X0062701Y0035142D02*
X0065193Y0035142D01*
X0065193Y0035418D02*
X0062701Y0035418D01*
X0062701Y0035694D02*
X0065193Y0035694D01*
X0065193Y0035970D02*
X0062701Y0035970D01*
X0062701Y0036246D02*
X0065193Y0036246D01*
X0065193Y0036522D02*
X0062701Y0036522D01*
X0062701Y0036798D02*
X0065193Y0036798D01*
X0065193Y0037074D02*
X0062701Y0037074D01*
X0068607Y0037200D02*
X0071099Y0037200D01*
X0071099Y0034314D01*
X0068607Y0034314D01*
X0068607Y0037200D01*
X0068607Y0034590D02*
X0071099Y0034590D01*
X0071099Y0034866D02*
X0068607Y0034866D01*
X0068607Y0035142D02*
X0071099Y0035142D01*
X0071099Y0035418D02*
X0068607Y0035418D01*
X0068607Y0035694D02*
X0071099Y0035694D01*
X0071099Y0035970D02*
X0068607Y0035970D01*
X0068607Y0036246D02*
X0071099Y0036246D01*
X0071099Y0036522D02*
X0068607Y0036522D01*
X0068607Y0036798D02*
X0071099Y0036798D01*
X0071099Y0037074D02*
X0068607Y0037074D01*
D21*
X0067969Y0037220D02*
X0065831Y0037220D01*
X0067969Y0037220D02*
X0067969Y0034294D01*
X0065831Y0034294D01*
X0065831Y0037220D01*
X0065831Y0034530D02*
X0067969Y0034530D01*
X0067969Y0034766D02*
X0065831Y0034766D01*
X0065831Y0035002D02*
X0067969Y0035002D01*
X0067969Y0035238D02*
X0065831Y0035238D01*
X0065831Y0035474D02*
X0067969Y0035474D01*
X0067969Y0035710D02*
X0065831Y0035710D01*
X0065831Y0035946D02*
X0067969Y0035946D01*
X0067969Y0036182D02*
X0065831Y0036182D01*
X0065831Y0036418D02*
X0067969Y0036418D01*
X0067969Y0036654D02*
X0065831Y0036654D01*
X0065831Y0036890D02*
X0067969Y0036890D01*
X0067969Y0037126D02*
X0065831Y0037126D01*
X0065831Y0044306D02*
X0067969Y0044306D01*
X0067969Y0041380D01*
X0065831Y0041380D01*
X0065831Y0044306D01*
X0065831Y0041616D02*
X0067969Y0041616D01*
X0067969Y0041852D02*
X0065831Y0041852D01*
X0065831Y0042088D02*
X0067969Y0042088D01*
X0067969Y0042324D02*
X0065831Y0042324D01*
X0065831Y0042560D02*
X0067969Y0042560D01*
X0067969Y0042796D02*
X0065831Y0042796D01*
X0065831Y0043032D02*
X0067969Y0043032D01*
X0067969Y0043268D02*
X0065831Y0043268D01*
X0065831Y0043504D02*
X0067969Y0043504D01*
X0067969Y0043740D02*
X0065831Y0043740D01*
X0065831Y0043976D02*
X0067969Y0043976D01*
X0067969Y0044212D02*
X0065831Y0044212D01*
X0066369Y0109020D02*
X0064231Y0109020D01*
X0066369Y0109020D02*
X0066369Y0106094D01*
X0064231Y0106094D01*
X0064231Y0109020D01*
X0064231Y0106330D02*
X0066369Y0106330D01*
X0066369Y0106566D02*
X0064231Y0106566D01*
X0064231Y0106802D02*
X0066369Y0106802D01*
X0066369Y0107038D02*
X0064231Y0107038D01*
X0064231Y0107274D02*
X0066369Y0107274D01*
X0066369Y0107510D02*
X0064231Y0107510D01*
X0064231Y0107746D02*
X0066369Y0107746D01*
X0066369Y0107982D02*
X0064231Y0107982D01*
X0064231Y0108218D02*
X0066369Y0108218D01*
X0066369Y0108454D02*
X0064231Y0108454D01*
X0064231Y0108690D02*
X0066369Y0108690D01*
X0066369Y0108926D02*
X0064231Y0108926D01*
X0064231Y0116106D02*
X0066369Y0116106D01*
X0066369Y0113180D01*
X0064231Y0113180D01*
X0064231Y0116106D01*
X0064231Y0113416D02*
X0066369Y0113416D01*
X0066369Y0113652D02*
X0064231Y0113652D01*
X0064231Y0113888D02*
X0066369Y0113888D01*
X0066369Y0114124D02*
X0064231Y0114124D01*
X0064231Y0114360D02*
X0066369Y0114360D01*
X0066369Y0114596D02*
X0064231Y0114596D01*
X0064231Y0114832D02*
X0066369Y0114832D01*
X0066369Y0115068D02*
X0064231Y0115068D01*
X0064231Y0115304D02*
X0066369Y0115304D01*
X0066369Y0115540D02*
X0064231Y0115540D01*
X0064231Y0115776D02*
X0066369Y0115776D01*
X0066369Y0116012D02*
X0064231Y0116012D01*
D22*
X0062560Y0076615D03*
X0066300Y0076615D03*
X0070040Y0076615D03*
X0070040Y0065985D03*
X0066300Y0065985D03*
X0062560Y0065985D03*
D23*
X0062900Y0059500D03*
X0076500Y0076700D03*
X0066700Y0091100D03*
X0070300Y0098900D03*
X0050500Y0100500D03*
X0028500Y0130700D03*
X0086100Y0149300D03*
X0056700Y0038100D03*
D24*
X0058700Y0158500D03*
X0026700Y0157500D03*
X0009700Y0157500D03*
M02*
