G75*
%MOIN*%
%OFA0B0*%
%FSLAX25Y25*%
%IPPOS*%
%LPD*%
%AMOC8*
5,1,8,0,0,1.08239X$1,22.5*
%
%ADD10C,0.01000*%
%ADD11C,0.00300*%
%ADD12C,0.00500*%
%ADD13C,0.00039*%
%ADD14C,0.00295*%
%ADD15C,0.00600*%
%ADD16C,0.00800*%
%ADD17C,0.00000*%
%ADD18R,0.01181X0.01575*%
D10*
X0001500Y0001500D02*
X0111700Y0001500D01*
X0111700Y0165500D01*
X0001500Y0165500D01*
X0001500Y0001500D01*
D11*
X0007084Y0026067D02*
X0007084Y0028536D01*
X0005850Y0027302D02*
X0008319Y0027302D01*
X0007084Y0051267D02*
X0007084Y0053736D01*
X0005850Y0052502D02*
X0008319Y0052502D01*
X0007084Y0077267D02*
X0007084Y0079736D01*
X0005850Y0078502D02*
X0008319Y0078502D01*
X0007084Y0103467D02*
X0007084Y0105936D01*
X0005850Y0104702D02*
X0008319Y0104702D01*
X0061521Y0117150D02*
X0062489Y0117150D01*
X0062005Y0117150D02*
X0062005Y0120052D01*
X0061521Y0120052D02*
X0062489Y0120052D01*
X0063486Y0119569D02*
X0063486Y0117634D01*
X0063969Y0117150D01*
X0064937Y0117150D01*
X0065421Y0117634D01*
X0066432Y0117634D02*
X0066916Y0117150D01*
X0067883Y0117150D01*
X0068367Y0117634D01*
X0068367Y0118117D01*
X0067883Y0118601D01*
X0067400Y0118601D01*
X0067883Y0118601D02*
X0068367Y0119085D01*
X0068367Y0119569D01*
X0067883Y0120052D01*
X0066916Y0120052D01*
X0066432Y0119569D01*
X0065421Y0119569D02*
X0064937Y0120052D01*
X0063969Y0120052D01*
X0063486Y0119569D01*
X0063505Y0083152D02*
X0063505Y0080450D01*
X0063955Y0080450D02*
X0063054Y0080450D01*
X0063054Y0083152D02*
X0063955Y0083152D01*
X0064896Y0082702D02*
X0064896Y0080900D01*
X0065346Y0080450D01*
X0066247Y0080450D01*
X0066697Y0080900D01*
X0067658Y0080900D02*
X0068109Y0080450D01*
X0069009Y0080450D01*
X0069460Y0080900D01*
X0069460Y0081801D01*
X0069009Y0082252D01*
X0068559Y0082252D01*
X0067658Y0081801D01*
X0067658Y0083152D01*
X0069460Y0083152D01*
X0066697Y0082702D02*
X0066247Y0083152D01*
X0065346Y0083152D01*
X0064896Y0082702D01*
X0065569Y0048252D02*
X0065086Y0047769D01*
X0065086Y0045834D01*
X0065569Y0045350D01*
X0066537Y0045350D01*
X0067021Y0045834D01*
X0068032Y0046801D02*
X0069967Y0046801D01*
X0069483Y0045350D02*
X0069483Y0048252D01*
X0068032Y0046801D01*
X0067021Y0047769D02*
X0066537Y0048252D01*
X0065569Y0048252D01*
X0064089Y0048252D02*
X0063121Y0048252D01*
X0063605Y0048252D02*
X0063605Y0045350D01*
X0063121Y0045350D02*
X0064089Y0045350D01*
D12*
X0062569Y0041662D02*
X0071231Y0041662D01*
X0071231Y0036938D01*
X0062569Y0036938D01*
X0062569Y0041662D01*
X0069262Y0040284D02*
X0069264Y0040332D01*
X0069270Y0040380D01*
X0069280Y0040427D01*
X0069293Y0040473D01*
X0069311Y0040518D01*
X0069331Y0040562D01*
X0069356Y0040604D01*
X0069384Y0040643D01*
X0069414Y0040680D01*
X0069448Y0040714D01*
X0069485Y0040746D01*
X0069523Y0040775D01*
X0069564Y0040800D01*
X0069607Y0040822D01*
X0069652Y0040840D01*
X0069698Y0040854D01*
X0069745Y0040865D01*
X0069793Y0040872D01*
X0069841Y0040875D01*
X0069889Y0040874D01*
X0069937Y0040869D01*
X0069985Y0040860D01*
X0070031Y0040848D01*
X0070076Y0040831D01*
X0070120Y0040811D01*
X0070162Y0040788D01*
X0070202Y0040761D01*
X0070240Y0040731D01*
X0070275Y0040698D01*
X0070307Y0040662D01*
X0070337Y0040624D01*
X0070363Y0040583D01*
X0070385Y0040540D01*
X0070405Y0040496D01*
X0070420Y0040451D01*
X0070432Y0040404D01*
X0070440Y0040356D01*
X0070444Y0040308D01*
X0070444Y0040260D01*
X0070440Y0040212D01*
X0070432Y0040164D01*
X0070420Y0040117D01*
X0070405Y0040072D01*
X0070385Y0040028D01*
X0070363Y0039985D01*
X0070337Y0039944D01*
X0070307Y0039906D01*
X0070275Y0039870D01*
X0070240Y0039837D01*
X0070202Y0039807D01*
X0070162Y0039780D01*
X0070120Y0039757D01*
X0070076Y0039737D01*
X0070031Y0039720D01*
X0069985Y0039708D01*
X0069937Y0039699D01*
X0069889Y0039694D01*
X0069841Y0039693D01*
X0069793Y0039696D01*
X0069745Y0039703D01*
X0069698Y0039714D01*
X0069652Y0039728D01*
X0069607Y0039746D01*
X0069564Y0039768D01*
X0069523Y0039793D01*
X0069485Y0039822D01*
X0069448Y0039854D01*
X0069414Y0039888D01*
X0069384Y0039925D01*
X0069356Y0039964D01*
X0069331Y0040006D01*
X0069311Y0040050D01*
X0069293Y0040095D01*
X0069280Y0040141D01*
X0069270Y0040188D01*
X0069264Y0040236D01*
X0069262Y0040284D01*
X0069631Y0108738D02*
X0060969Y0108738D01*
X0060969Y0113462D01*
X0069631Y0113462D01*
X0069631Y0108738D01*
X0067662Y0112084D02*
X0067664Y0112132D01*
X0067670Y0112180D01*
X0067680Y0112227D01*
X0067693Y0112273D01*
X0067711Y0112318D01*
X0067731Y0112362D01*
X0067756Y0112404D01*
X0067784Y0112443D01*
X0067814Y0112480D01*
X0067848Y0112514D01*
X0067885Y0112546D01*
X0067923Y0112575D01*
X0067964Y0112600D01*
X0068007Y0112622D01*
X0068052Y0112640D01*
X0068098Y0112654D01*
X0068145Y0112665D01*
X0068193Y0112672D01*
X0068241Y0112675D01*
X0068289Y0112674D01*
X0068337Y0112669D01*
X0068385Y0112660D01*
X0068431Y0112648D01*
X0068476Y0112631D01*
X0068520Y0112611D01*
X0068562Y0112588D01*
X0068602Y0112561D01*
X0068640Y0112531D01*
X0068675Y0112498D01*
X0068707Y0112462D01*
X0068737Y0112424D01*
X0068763Y0112383D01*
X0068785Y0112340D01*
X0068805Y0112296D01*
X0068820Y0112251D01*
X0068832Y0112204D01*
X0068840Y0112156D01*
X0068844Y0112108D01*
X0068844Y0112060D01*
X0068840Y0112012D01*
X0068832Y0111964D01*
X0068820Y0111917D01*
X0068805Y0111872D01*
X0068785Y0111828D01*
X0068763Y0111785D01*
X0068737Y0111744D01*
X0068707Y0111706D01*
X0068675Y0111670D01*
X0068640Y0111637D01*
X0068602Y0111607D01*
X0068562Y0111580D01*
X0068520Y0111557D01*
X0068476Y0111537D01*
X0068431Y0111520D01*
X0068385Y0111508D01*
X0068337Y0111499D01*
X0068289Y0111494D01*
X0068241Y0111493D01*
X0068193Y0111496D01*
X0068145Y0111503D01*
X0068098Y0111514D01*
X0068052Y0111528D01*
X0068007Y0111546D01*
X0067964Y0111568D01*
X0067923Y0111593D01*
X0067885Y0111622D01*
X0067848Y0111654D01*
X0067814Y0111688D01*
X0067784Y0111725D01*
X0067756Y0111764D01*
X0067731Y0111806D01*
X0067711Y0111850D01*
X0067693Y0111895D01*
X0067680Y0111941D01*
X0067670Y0111988D01*
X0067664Y0112036D01*
X0067662Y0112084D01*
X0054691Y0138350D02*
X0054057Y0138350D01*
X0053740Y0138667D01*
X0054374Y0139301D02*
X0054691Y0139301D01*
X0055008Y0138984D01*
X0055008Y0138667D01*
X0054691Y0138350D01*
X0054691Y0139301D02*
X0055008Y0139618D01*
X0055008Y0139935D01*
X0054691Y0140252D01*
X0054057Y0140252D01*
X0053740Y0139935D01*
X0052798Y0139935D02*
X0052481Y0140252D01*
X0051847Y0140252D01*
X0051530Y0139935D01*
X0051530Y0138667D01*
X0051847Y0138350D01*
X0052481Y0138350D01*
X0052798Y0138667D01*
X0067450Y0139250D02*
X0068084Y0139250D01*
X0067767Y0139250D02*
X0067767Y0141152D01*
X0067450Y0141152D02*
X0068084Y0141152D01*
X0068923Y0140835D02*
X0068923Y0139567D01*
X0069240Y0139250D01*
X0069874Y0139250D01*
X0070191Y0139567D01*
X0071133Y0139250D02*
X0072401Y0140518D01*
X0072401Y0140835D01*
X0072084Y0141152D01*
X0071450Y0141152D01*
X0071133Y0140835D01*
X0070191Y0140835D02*
X0069874Y0141152D01*
X0069240Y0141152D01*
X0068923Y0140835D01*
X0068913Y0142594D02*
X0072850Y0142594D01*
X0072850Y0145744D01*
X0072456Y0151256D02*
X0072456Y0154406D01*
X0068913Y0154406D01*
X0066944Y0149681D02*
X0066944Y0147319D01*
X0071133Y0139250D02*
X0072401Y0139250D01*
X0061428Y0161750D02*
X0060160Y0161750D01*
X0060794Y0161750D02*
X0060794Y0163652D01*
X0060160Y0163018D01*
X0059218Y0163335D02*
X0058901Y0163652D01*
X0058267Y0163652D01*
X0057950Y0163335D01*
X0057950Y0162067D01*
X0058267Y0161750D01*
X0058901Y0161750D01*
X0059218Y0162067D01*
X0052008Y0162618D02*
X0052008Y0162935D01*
X0051691Y0163252D01*
X0051057Y0163252D01*
X0050740Y0162935D01*
X0049798Y0162935D02*
X0049481Y0163252D01*
X0048847Y0163252D01*
X0048530Y0162935D01*
X0048530Y0161667D01*
X0048847Y0161350D01*
X0049481Y0161350D01*
X0049798Y0161667D01*
X0050740Y0161350D02*
X0052008Y0162618D01*
X0052008Y0161350D02*
X0050740Y0161350D01*
X0035374Y0147752D02*
X0035374Y0145850D01*
X0034740Y0145850D02*
X0036008Y0145850D01*
X0034740Y0147118D02*
X0035374Y0147752D01*
X0033798Y0147435D02*
X0033798Y0146801D01*
X0033481Y0146484D01*
X0032530Y0146484D01*
X0032530Y0145850D02*
X0032530Y0147752D01*
X0033481Y0147752D01*
X0033798Y0147435D01*
X0033164Y0146484D02*
X0033798Y0145850D01*
X0033811Y0140852D02*
X0034128Y0140535D01*
X0034128Y0139901D01*
X0033811Y0139584D01*
X0032860Y0139584D01*
X0032860Y0138950D02*
X0032860Y0140852D01*
X0033811Y0140852D01*
X0035070Y0140218D02*
X0035704Y0140852D01*
X0035704Y0138950D01*
X0035070Y0138950D02*
X0036338Y0138950D01*
X0031918Y0140852D02*
X0031284Y0140852D01*
X0031601Y0140852D02*
X0031601Y0139267D01*
X0031284Y0138950D01*
X0030967Y0138950D01*
X0030650Y0139267D01*
X0024850Y0140909D02*
X0018550Y0140909D01*
X0010691Y0138252D02*
X0010691Y0136350D01*
X0011008Y0137301D02*
X0009740Y0137301D01*
X0010691Y0138252D01*
X0008798Y0137935D02*
X0008481Y0138252D01*
X0007847Y0138252D01*
X0007530Y0137935D01*
X0007530Y0136667D01*
X0007847Y0136350D01*
X0008481Y0136350D01*
X0008798Y0136667D01*
X0007850Y0118808D02*
X0007850Y0117540D01*
X0007850Y0118174D02*
X0005948Y0118174D01*
X0006582Y0117540D01*
X0006265Y0116598D02*
X0005948Y0116281D01*
X0005948Y0115330D01*
X0007850Y0115330D01*
X0007850Y0116281D01*
X0007533Y0116598D01*
X0006265Y0116598D01*
X0005948Y0114388D02*
X0005948Y0113120D01*
X0007850Y0113120D01*
X0007850Y0114388D01*
X0006899Y0113754D02*
X0006899Y0113120D01*
X0007850Y0112178D02*
X0007850Y0110910D01*
X0005948Y0110910D01*
X0006265Y0092808D02*
X0005948Y0092491D01*
X0005948Y0091857D01*
X0006265Y0091540D01*
X0006265Y0090598D02*
X0005948Y0090281D01*
X0005948Y0089330D01*
X0007850Y0089330D01*
X0007850Y0090281D01*
X0007533Y0090598D01*
X0006265Y0090598D01*
X0007850Y0091540D02*
X0006582Y0092808D01*
X0006265Y0092808D01*
X0007850Y0092808D02*
X0007850Y0091540D01*
X0007850Y0088388D02*
X0007850Y0087120D01*
X0005948Y0087120D01*
X0005948Y0088388D01*
X0006899Y0087754D02*
X0006899Y0087120D01*
X0007850Y0086178D02*
X0007850Y0084910D01*
X0005948Y0084910D01*
X0006265Y0066808D02*
X0006582Y0066808D01*
X0006899Y0066491D01*
X0007216Y0066808D01*
X0007533Y0066808D01*
X0007850Y0066491D01*
X0007850Y0065857D01*
X0007533Y0065540D01*
X0006899Y0066174D02*
X0006899Y0066491D01*
X0006265Y0066808D02*
X0005948Y0066491D01*
X0005948Y0065857D01*
X0006265Y0065540D01*
X0006265Y0064598D02*
X0005948Y0064281D01*
X0005948Y0063330D01*
X0007850Y0063330D01*
X0007850Y0064281D01*
X0007533Y0064598D01*
X0006265Y0064598D01*
X0005948Y0062388D02*
X0005948Y0061120D01*
X0007850Y0061120D01*
X0007850Y0062388D01*
X0006899Y0061754D02*
X0006899Y0061120D01*
X0007850Y0060178D02*
X0007850Y0058910D01*
X0005948Y0058910D01*
X0006899Y0041808D02*
X0006899Y0040540D01*
X0005948Y0041491D01*
X0007850Y0041491D01*
X0007533Y0039598D02*
X0006265Y0039598D01*
X0005948Y0039281D01*
X0005948Y0038330D01*
X0007850Y0038330D01*
X0007850Y0039281D01*
X0007533Y0039598D01*
X0007850Y0037388D02*
X0007850Y0036120D01*
X0005948Y0036120D01*
X0005948Y0037388D01*
X0006899Y0036754D02*
X0006899Y0036120D01*
X0007850Y0035178D02*
X0007850Y0033910D01*
X0005948Y0033910D01*
X0018550Y0152091D02*
X0024850Y0152091D01*
X0023008Y0154350D02*
X0021740Y0154350D01*
X0022374Y0154350D02*
X0022374Y0156252D01*
X0021740Y0155618D01*
X0020798Y0155935D02*
X0020481Y0156252D01*
X0019847Y0156252D01*
X0019530Y0155935D01*
X0019530Y0154667D01*
X0019847Y0154350D01*
X0020481Y0154350D01*
X0020798Y0154667D01*
X0018691Y0154350D02*
X0018057Y0154350D01*
X0018374Y0154350D02*
X0018374Y0156252D01*
X0018057Y0156252D02*
X0018691Y0156252D01*
X0089320Y0162167D02*
X0089637Y0161850D01*
X0090271Y0161850D01*
X0090588Y0162167D01*
X0090588Y0162801D01*
X0089954Y0162801D01*
X0089320Y0163435D02*
X0089637Y0163752D01*
X0090271Y0163752D01*
X0090588Y0163435D01*
X0091530Y0163752D02*
X0091530Y0161850D01*
X0092798Y0161850D02*
X0092798Y0163752D01*
X0093740Y0163752D02*
X0094691Y0163752D01*
X0095008Y0163435D01*
X0095008Y0162167D01*
X0094691Y0161850D01*
X0093740Y0161850D01*
X0093740Y0163752D01*
X0092798Y0161850D02*
X0091530Y0163752D01*
X0089320Y0163435D02*
X0089320Y0162167D01*
X0094600Y0159700D02*
X0101100Y0159700D01*
X0094600Y0159700D02*
X0094600Y0151700D01*
X0101950Y0145252D02*
X0101950Y0143667D01*
X0102267Y0143350D01*
X0102901Y0143350D01*
X0103218Y0143667D01*
X0103218Y0145252D01*
X0104160Y0144935D02*
X0104160Y0144618D01*
X0104477Y0144301D01*
X0105111Y0144301D01*
X0105428Y0143984D01*
X0105428Y0143667D01*
X0105111Y0143350D01*
X0104477Y0143350D01*
X0104160Y0143667D01*
X0104160Y0144935D02*
X0104477Y0145252D01*
X0105111Y0145252D01*
X0105428Y0144935D01*
X0106370Y0145252D02*
X0107321Y0145252D01*
X0107637Y0144935D01*
X0107637Y0144618D01*
X0107321Y0144301D01*
X0106370Y0144301D01*
X0107321Y0144301D02*
X0107637Y0143984D01*
X0107637Y0143667D01*
X0107321Y0143350D01*
X0106370Y0143350D01*
X0106370Y0145252D01*
X0111700Y0159802D02*
X0111700Y0129684D01*
X0101100Y0129800D02*
X0094600Y0129800D01*
X0094600Y0136700D01*
D13*
X0026818Y0146500D02*
X0026779Y0146500D01*
D14*
X0024298Y0141500D02*
X0019141Y0141500D01*
X0019141Y0151539D01*
X0024298Y0151539D01*
X0024298Y0141500D01*
D15*
X0037700Y0140000D02*
X0040200Y0137500D01*
X0045200Y0137500D01*
X0047700Y0140000D01*
X0047700Y0145000D01*
X0045200Y0147500D01*
X0040200Y0147500D01*
X0037700Y0145000D01*
X0037700Y0140000D01*
X0078700Y0156000D02*
X0081200Y0153500D01*
X0086200Y0153500D01*
X0088700Y0156000D01*
X0088700Y0161000D01*
X0086200Y0163500D01*
X0081200Y0163500D01*
X0078700Y0161000D01*
X0078700Y0156000D01*
X0072206Y0074056D02*
X0060394Y0074056D01*
X0060394Y0068544D01*
X0072206Y0068544D01*
X0072206Y0074056D01*
X0058727Y0066576D02*
X0058729Y0066635D01*
X0058735Y0066693D01*
X0058745Y0066751D01*
X0058758Y0066808D01*
X0058776Y0066865D01*
X0058797Y0066920D01*
X0058822Y0066973D01*
X0058850Y0067024D01*
X0058881Y0067074D01*
X0058916Y0067121D01*
X0058954Y0067166D01*
X0058995Y0067209D01*
X0059039Y0067248D01*
X0059085Y0067284D01*
X0059133Y0067318D01*
X0059184Y0067348D01*
X0059237Y0067374D01*
X0059291Y0067397D01*
X0059346Y0067416D01*
X0059403Y0067432D01*
X0059461Y0067444D01*
X0059519Y0067452D01*
X0059578Y0067456D01*
X0059636Y0067456D01*
X0059695Y0067452D01*
X0059753Y0067444D01*
X0059811Y0067432D01*
X0059868Y0067416D01*
X0059923Y0067397D01*
X0059977Y0067374D01*
X0060030Y0067348D01*
X0060081Y0067318D01*
X0060129Y0067284D01*
X0060175Y0067248D01*
X0060219Y0067209D01*
X0060260Y0067166D01*
X0060298Y0067121D01*
X0060333Y0067074D01*
X0060364Y0067024D01*
X0060392Y0066973D01*
X0060417Y0066920D01*
X0060438Y0066865D01*
X0060456Y0066808D01*
X0060469Y0066751D01*
X0060479Y0066693D01*
X0060485Y0066635D01*
X0060487Y0066576D01*
X0060485Y0066517D01*
X0060479Y0066459D01*
X0060469Y0066401D01*
X0060456Y0066344D01*
X0060438Y0066287D01*
X0060417Y0066232D01*
X0060392Y0066179D01*
X0060364Y0066128D01*
X0060333Y0066078D01*
X0060298Y0066031D01*
X0060260Y0065986D01*
X0060219Y0065943D01*
X0060175Y0065904D01*
X0060129Y0065868D01*
X0060081Y0065834D01*
X0060030Y0065804D01*
X0059977Y0065778D01*
X0059923Y0065755D01*
X0059868Y0065736D01*
X0059811Y0065720D01*
X0059753Y0065708D01*
X0059695Y0065700D01*
X0059636Y0065696D01*
X0059578Y0065696D01*
X0059519Y0065700D01*
X0059461Y0065708D01*
X0059403Y0065720D01*
X0059346Y0065736D01*
X0059291Y0065755D01*
X0059237Y0065778D01*
X0059184Y0065804D01*
X0059133Y0065834D01*
X0059085Y0065868D01*
X0059039Y0065904D01*
X0058995Y0065943D01*
X0058954Y0065986D01*
X0058916Y0066031D01*
X0058881Y0066078D01*
X0058850Y0066128D01*
X0058822Y0066179D01*
X0058797Y0066232D01*
X0058776Y0066287D01*
X0058758Y0066344D01*
X0058745Y0066401D01*
X0058735Y0066459D01*
X0058729Y0066517D01*
X0058727Y0066576D01*
D16*
X0019700Y0065000D02*
X0019700Y0060000D01*
X0017200Y0057500D01*
X0019700Y0055000D01*
X0019700Y0050000D01*
X0017200Y0047500D01*
X0012200Y0047500D01*
X0009700Y0050000D01*
X0009700Y0055000D01*
X0012200Y0057500D01*
X0009700Y0060000D01*
X0009700Y0065000D01*
X0012200Y0067500D01*
X0017200Y0067500D01*
X0019700Y0065000D01*
X0017200Y0073500D02*
X0012200Y0073500D01*
X0009700Y0076000D01*
X0009700Y0081000D01*
X0012200Y0083500D01*
X0009700Y0086000D01*
X0009700Y0091000D01*
X0012200Y0093500D01*
X0017200Y0093500D01*
X0019700Y0091000D01*
X0019700Y0086000D01*
X0017200Y0083500D01*
X0019700Y0081000D01*
X0019700Y0076000D01*
X0017200Y0073500D01*
X0017200Y0099500D02*
X0012200Y0099500D01*
X0009700Y0102000D01*
X0009700Y0107000D01*
X0012200Y0109500D01*
X0009700Y0112000D01*
X0009700Y0117000D01*
X0012200Y0119500D01*
X0017200Y0119500D01*
X0019700Y0117000D01*
X0019700Y0112000D01*
X0017200Y0109500D01*
X0019700Y0107000D01*
X0019700Y0102000D01*
X0017200Y0099500D01*
X0017200Y0042500D02*
X0012200Y0042500D01*
X0009700Y0040000D01*
X0009700Y0035000D01*
X0012200Y0032500D01*
X0009700Y0030000D01*
X0009700Y0025000D01*
X0012200Y0022500D01*
X0017200Y0022500D01*
X0019700Y0025000D01*
X0019700Y0030000D01*
X0017200Y0032500D01*
X0019700Y0035000D01*
X0019700Y0040000D01*
X0017200Y0042500D01*
D17*
X0096552Y0136377D02*
X0096554Y0136442D01*
X0096560Y0136508D01*
X0096570Y0136572D01*
X0096583Y0136636D01*
X0096601Y0136699D01*
X0096622Y0136761D01*
X0096647Y0136821D01*
X0096676Y0136880D01*
X0096708Y0136937D01*
X0096744Y0136992D01*
X0096782Y0137045D01*
X0096824Y0137095D01*
X0096869Y0137143D01*
X0096917Y0137188D01*
X0096967Y0137230D01*
X0097020Y0137268D01*
X0097075Y0137304D01*
X0097132Y0137336D01*
X0097191Y0137365D01*
X0097251Y0137390D01*
X0097313Y0137411D01*
X0097376Y0137429D01*
X0097440Y0137442D01*
X0097504Y0137452D01*
X0097570Y0137458D01*
X0097635Y0137460D01*
X0097700Y0137458D01*
X0097766Y0137452D01*
X0097830Y0137442D01*
X0097894Y0137429D01*
X0097957Y0137411D01*
X0098019Y0137390D01*
X0098079Y0137365D01*
X0098138Y0137336D01*
X0098195Y0137304D01*
X0098250Y0137268D01*
X0098303Y0137230D01*
X0098353Y0137188D01*
X0098401Y0137143D01*
X0098446Y0137095D01*
X0098488Y0137045D01*
X0098526Y0136992D01*
X0098562Y0136937D01*
X0098594Y0136880D01*
X0098623Y0136821D01*
X0098648Y0136761D01*
X0098669Y0136699D01*
X0098687Y0136636D01*
X0098700Y0136572D01*
X0098710Y0136508D01*
X0098716Y0136442D01*
X0098718Y0136377D01*
X0098716Y0136312D01*
X0098710Y0136246D01*
X0098700Y0136182D01*
X0098687Y0136118D01*
X0098669Y0136055D01*
X0098648Y0135993D01*
X0098623Y0135933D01*
X0098594Y0135874D01*
X0098562Y0135817D01*
X0098526Y0135762D01*
X0098488Y0135709D01*
X0098446Y0135659D01*
X0098401Y0135611D01*
X0098353Y0135566D01*
X0098303Y0135524D01*
X0098250Y0135486D01*
X0098195Y0135450D01*
X0098138Y0135418D01*
X0098079Y0135389D01*
X0098019Y0135364D01*
X0097957Y0135343D01*
X0097894Y0135325D01*
X0097830Y0135312D01*
X0097766Y0135302D01*
X0097700Y0135296D01*
X0097635Y0135294D01*
X0097570Y0135296D01*
X0097504Y0135302D01*
X0097440Y0135312D01*
X0097376Y0135325D01*
X0097313Y0135343D01*
X0097251Y0135364D01*
X0097191Y0135389D01*
X0097132Y0135418D01*
X0097075Y0135450D01*
X0097020Y0135486D01*
X0096967Y0135524D01*
X0096917Y0135566D01*
X0096869Y0135611D01*
X0096824Y0135659D01*
X0096782Y0135709D01*
X0096744Y0135762D01*
X0096708Y0135817D01*
X0096676Y0135874D01*
X0096647Y0135933D01*
X0096622Y0135993D01*
X0096601Y0136055D01*
X0096583Y0136118D01*
X0096570Y0136182D01*
X0096560Y0136246D01*
X0096554Y0136312D01*
X0096552Y0136377D01*
X0096552Y0152125D02*
X0096554Y0152190D01*
X0096560Y0152256D01*
X0096570Y0152320D01*
X0096583Y0152384D01*
X0096601Y0152447D01*
X0096622Y0152509D01*
X0096647Y0152569D01*
X0096676Y0152628D01*
X0096708Y0152685D01*
X0096744Y0152740D01*
X0096782Y0152793D01*
X0096824Y0152843D01*
X0096869Y0152891D01*
X0096917Y0152936D01*
X0096967Y0152978D01*
X0097020Y0153016D01*
X0097075Y0153052D01*
X0097132Y0153084D01*
X0097191Y0153113D01*
X0097251Y0153138D01*
X0097313Y0153159D01*
X0097376Y0153177D01*
X0097440Y0153190D01*
X0097504Y0153200D01*
X0097570Y0153206D01*
X0097635Y0153208D01*
X0097700Y0153206D01*
X0097766Y0153200D01*
X0097830Y0153190D01*
X0097894Y0153177D01*
X0097957Y0153159D01*
X0098019Y0153138D01*
X0098079Y0153113D01*
X0098138Y0153084D01*
X0098195Y0153052D01*
X0098250Y0153016D01*
X0098303Y0152978D01*
X0098353Y0152936D01*
X0098401Y0152891D01*
X0098446Y0152843D01*
X0098488Y0152793D01*
X0098526Y0152740D01*
X0098562Y0152685D01*
X0098594Y0152628D01*
X0098623Y0152569D01*
X0098648Y0152509D01*
X0098669Y0152447D01*
X0098687Y0152384D01*
X0098700Y0152320D01*
X0098710Y0152256D01*
X0098716Y0152190D01*
X0098718Y0152125D01*
X0098716Y0152060D01*
X0098710Y0151994D01*
X0098700Y0151930D01*
X0098687Y0151866D01*
X0098669Y0151803D01*
X0098648Y0151741D01*
X0098623Y0151681D01*
X0098594Y0151622D01*
X0098562Y0151565D01*
X0098526Y0151510D01*
X0098488Y0151457D01*
X0098446Y0151407D01*
X0098401Y0151359D01*
X0098353Y0151314D01*
X0098303Y0151272D01*
X0098250Y0151234D01*
X0098195Y0151198D01*
X0098138Y0151166D01*
X0098079Y0151137D01*
X0098019Y0151112D01*
X0097957Y0151091D01*
X0097894Y0151073D01*
X0097830Y0151060D01*
X0097766Y0151050D01*
X0097700Y0151044D01*
X0097635Y0151042D01*
X0097570Y0151044D01*
X0097504Y0151050D01*
X0097440Y0151060D01*
X0097376Y0151073D01*
X0097313Y0151091D01*
X0097251Y0151112D01*
X0097191Y0151137D01*
X0097132Y0151166D01*
X0097075Y0151198D01*
X0097020Y0151234D01*
X0096967Y0151272D01*
X0096917Y0151314D01*
X0096869Y0151359D01*
X0096824Y0151407D01*
X0096782Y0151457D01*
X0096744Y0151510D01*
X0096708Y0151565D01*
X0096676Y0151622D01*
X0096647Y0151681D01*
X0096622Y0151741D01*
X0096601Y0151803D01*
X0096583Y0151866D01*
X0096570Y0151930D01*
X0096560Y0151994D01*
X0096554Y0152060D01*
X0096552Y0152125D01*
D18*
X0068253Y0114053D03*
X0065300Y0114053D03*
X0062347Y0114053D03*
X0062347Y0108147D03*
X0065300Y0108147D03*
X0068253Y0108147D03*
X0066900Y0042253D03*
X0069853Y0042253D03*
X0069853Y0036347D03*
X0066900Y0036347D03*
X0063947Y0036347D03*
X0063947Y0042253D03*
M02*
