G75*
%MOIN*%
%OFA0B0*%
%FSLAX25Y25*%
%IPPOS*%
%LPD*%
%AMOC8*
5,1,8,0,0,1.08239X$1,22.5*
%
%ADD10R,0.00200X0.00200*%
%ADD11R,0.00400X0.00200*%
%ADD12R,0.00800X0.00200*%
%ADD13R,0.01000X0.00200*%
%ADD14R,0.00600X0.00200*%
%ADD15R,0.05200X0.00200*%
%ADD16R,0.01600X0.00200*%
%ADD17R,0.08000X0.00200*%
%ADD18R,0.09600X0.00200*%
%ADD19R,0.01400X0.00200*%
%ADD20R,0.11000X0.00200*%
%ADD21R,0.01200X0.00200*%
%ADD22R,0.12200X0.00200*%
%ADD23R,0.13200X0.00200*%
%ADD24R,0.14200X0.00200*%
%ADD25R,0.02600X0.00200*%
%ADD26R,0.17200X0.00200*%
%ADD27R,0.02000X0.00200*%
%ADD28R,0.17600X0.00200*%
%ADD29R,0.01800X0.00200*%
%ADD30R,0.18000X0.00200*%
%ADD31R,0.18200X0.00200*%
%ADD32R,0.02200X0.00200*%
%ADD33R,0.18400X0.00200*%
%ADD34R,0.18600X0.00200*%
%ADD35R,0.20800X0.00200*%
%ADD36R,0.03800X0.00200*%
%ADD37R,0.21200X0.00200*%
%ADD38R,0.21400X0.00200*%
%ADD39R,0.21800X0.00200*%
%ADD40R,0.03000X0.00200*%
%ADD41R,0.22200X0.00200*%
%ADD42R,0.02400X0.00200*%
%ADD43R,0.04600X0.00200*%
%ADD44R,0.25000X0.00200*%
%ADD45R,0.06000X0.00200*%
%ADD46R,0.25400X0.00200*%
%ADD47R,0.05600X0.00200*%
%ADD48R,0.25600X0.00200*%
%ADD49R,0.05400X0.00200*%
%ADD50R,0.26200X0.00200*%
%ADD51R,0.05800X0.00200*%
%ADD52R,0.26400X0.00200*%
%ADD53R,0.26600X0.00200*%
%ADD54R,0.29400X0.00200*%
%ADD55R,0.24600X0.00200*%
%ADD56R,0.03600X0.00200*%
%ADD57R,0.25200X0.00200*%
%ADD58R,0.02800X0.00200*%
%ADD59R,0.26800X0.00200*%
%ADD60R,0.27600X0.00200*%
%ADD61R,0.27800X0.00200*%
%ADD62R,0.03400X0.00200*%
%ADD63R,0.27000X0.00200*%
%ADD64R,0.27200X0.00200*%
%ADD65R,0.04000X0.00200*%
%ADD66R,0.32400X0.00200*%
%ADD67R,0.32000X0.00200*%
%ADD68R,0.33000X0.00200*%
%ADD69R,0.28200X0.00200*%
%ADD70R,0.28600X0.00200*%
%ADD71R,0.16200X0.00200*%
%ADD72R,0.12400X0.00200*%
%ADD73R,0.14600X0.00200*%
%ADD74R,0.13600X0.00200*%
%ADD75R,0.11800X0.00200*%
%ADD76R,0.11600X0.00200*%
%ADD77R,0.10800X0.00200*%
%ADD78R,0.10400X0.00200*%
%ADD79R,0.10200X0.00200*%
%ADD80R,0.11200X0.00200*%
%ADD81R,0.10600X0.00200*%
%ADD82R,0.10000X0.00200*%
%ADD83R,0.12800X0.00200*%
%ADD84R,0.09800X0.00200*%
%ADD85R,0.13000X0.00200*%
%ADD86R,0.12600X0.00200*%
%ADD87R,0.09400X0.00200*%
%ADD88R,0.09200X0.00200*%
%ADD89R,0.09000X0.00200*%
%ADD90R,0.08800X0.00200*%
%ADD91R,0.08600X0.00200*%
%ADD92R,0.04200X0.00200*%
%ADD93R,0.07800X0.00200*%
%ADD94R,0.07600X0.00200*%
%ADD95R,0.07400X0.00200*%
%ADD96R,0.12000X0.00200*%
%ADD97R,0.11400X0.00200*%
%ADD98R,0.19000X0.00200*%
%ADD99R,0.19400X0.00200*%
%ADD100R,0.19800X0.00200*%
%ADD101R,0.20000X0.00200*%
%ADD102R,0.31600X0.00200*%
%ADD103R,0.31200X0.00200*%
%ADD104R,0.31000X0.00200*%
%ADD105R,0.26000X0.00200*%
%ADD106R,0.05000X0.00200*%
%ADD107R,0.24800X0.00200*%
%ADD108R,0.24400X0.00200*%
%ADD109R,0.24000X0.00200*%
%ADD110R,0.23600X0.00200*%
%ADD111R,0.23400X0.00200*%
%ADD112R,0.03200X0.00200*%
%ADD113R,0.23000X0.00200*%
%ADD114R,0.22600X0.00200*%
%ADD115R,0.22400X0.00200*%
%ADD116R,0.22000X0.00200*%
%ADD117R,0.21000X0.00200*%
%ADD118R,0.20600X0.00200*%
%ADD119R,0.20200X0.00200*%
%ADD120R,0.19600X0.00200*%
%ADD121R,0.19200X0.00200*%
%ADD122R,0.17400X0.00200*%
%ADD123R,0.16800X0.00200*%
%ADD124R,0.16000X0.00200*%
%ADD125R,0.15400X0.00200*%
%ADD126R,0.14400X0.00200*%
%ADD127R,0.04400X0.00200*%
%ADD128R,0.14000X0.00200*%
%ADD129R,0.06600X0.00200*%
%ADD130R,0.13800X0.00200*%
%ADD131R,0.08200X0.00200*%
%ADD132R,0.07000X0.00200*%
%ADD133R,0.06200X0.00200*%
%ADD134R,0.13400X0.00200*%
%ADD135R,0.06800X0.00200*%
%ADD136R,0.06400X0.00200*%
%ADD137R,0.07200X0.00200*%
%ADD138R,0.08400X0.00200*%
%ADD139R,0.04800X0.00200*%
%ADD140R,0.14800X0.00200*%
D10*
X0068300Y0085100D03*
X0084300Y0033300D03*
X0084300Y0033100D03*
X0084500Y0032900D03*
X0084100Y0031700D03*
X0082900Y0031100D03*
X0082300Y0030900D03*
X0082100Y0031700D03*
X0082300Y0032100D03*
X0081500Y0029500D03*
X0081500Y0029100D03*
X0082900Y0025500D03*
X0085100Y0022300D03*
X0085300Y0022100D03*
X0085500Y0021900D03*
X0085700Y0020900D03*
X0085100Y0020900D03*
X0086700Y0021300D03*
X0086700Y0021500D03*
X0086700Y0022500D03*
X0088100Y0020500D03*
X0088700Y0019300D03*
X0088700Y0019100D03*
X0088900Y0016500D03*
X0087500Y0015300D03*
X0087500Y0014900D03*
X0087300Y0014100D03*
X0087300Y0013900D03*
X0088500Y0012700D03*
X0088300Y0012500D03*
X0089100Y0014100D03*
X0091300Y0014100D03*
X0091300Y0014300D03*
X0091300Y0014500D03*
X0091300Y0014700D03*
X0091100Y0015100D03*
X0086100Y0017900D03*
X0085900Y0017500D03*
X0085300Y0017700D03*
X0085700Y0016700D03*
X0085700Y0016500D03*
X0082700Y0016500D03*
X0082100Y0013900D03*
X0082700Y0011100D03*
X0082700Y0010900D03*
X0083300Y0010100D03*
X0084900Y0009100D03*
X0085500Y0012900D03*
X0082300Y0008300D03*
X0080900Y0008700D03*
X0081300Y0007100D03*
X0080500Y0006300D03*
X0078700Y0006100D03*
X0077100Y0007500D03*
X0076300Y0007300D03*
X0074700Y0007700D03*
X0074700Y0007900D03*
X0074500Y0007300D03*
X0083700Y0019700D03*
X0089300Y0022100D03*
X0089300Y0022300D03*
X0085900Y0028300D03*
X0087900Y0033100D03*
X0063500Y0150700D03*
D11*
X0065600Y0036900D03*
X0081400Y0030900D03*
X0082200Y0031900D03*
X0084800Y0031900D03*
X0084800Y0032100D03*
X0084800Y0032300D03*
X0085000Y0032900D03*
X0085800Y0028100D03*
X0085800Y0027900D03*
X0085800Y0027700D03*
X0086200Y0022300D03*
X0086400Y0022100D03*
X0086400Y0021900D03*
X0086600Y0021700D03*
X0085800Y0021500D03*
X0085600Y0021700D03*
X0084800Y0020700D03*
X0084400Y0020300D03*
X0085200Y0020100D03*
X0083600Y0019900D03*
X0083400Y0017300D03*
X0083800Y0015500D03*
X0085200Y0015700D03*
X0085800Y0016900D03*
X0086000Y0017300D03*
X0086000Y0017700D03*
X0087400Y0016300D03*
X0087600Y0016500D03*
X0088000Y0016900D03*
X0089000Y0016300D03*
X0088400Y0014700D03*
X0087600Y0015100D03*
X0087400Y0014700D03*
X0087400Y0014300D03*
X0087200Y0013700D03*
X0089000Y0013900D03*
X0091200Y0014900D03*
X0088600Y0019500D03*
X0088400Y0019700D03*
X0088400Y0019900D03*
X0088200Y0020100D03*
X0088000Y0020300D03*
X0088000Y0022300D03*
X0087800Y0022500D03*
X0089200Y0022500D03*
X0083600Y0021900D03*
X0083200Y0022300D03*
X0081400Y0029300D03*
X0085200Y0013300D03*
X0085400Y0013100D03*
X0082000Y0008700D03*
X0082200Y0008500D03*
X0080800Y0008900D03*
X0080400Y0006700D03*
X0080400Y0006500D03*
X0078800Y0006500D03*
X0078800Y0006700D03*
X0077800Y0006300D03*
X0077000Y0007700D03*
X0076200Y0007700D03*
X0076200Y0007500D03*
X0075600Y0007700D03*
X0074600Y0007100D03*
X0074600Y0006900D03*
D12*
X0079000Y0006300D03*
X0080600Y0009900D03*
X0080400Y0010100D03*
X0081600Y0010300D03*
X0085600Y0016100D03*
X0087800Y0015500D03*
X0088400Y0015900D03*
X0088800Y0016100D03*
X0088600Y0013700D03*
X0088400Y0013500D03*
X0088400Y0010500D03*
X0087800Y0022900D03*
X0086600Y0022900D03*
X0083000Y0029500D03*
X0082800Y0030100D03*
X0082800Y0030300D03*
X0082600Y0030700D03*
X0084800Y0031700D03*
X0084800Y0032700D03*
X0086600Y0032900D03*
X0066800Y0121700D03*
D13*
X0061500Y0139100D03*
X0061100Y0146100D03*
X0067900Y0053900D03*
X0081700Y0031100D03*
X0084300Y0024100D03*
X0084500Y0020500D03*
X0084900Y0019700D03*
X0083300Y0013300D03*
X0082100Y0010100D03*
X0082100Y0009900D03*
X0080700Y0009700D03*
X0080500Y0009300D03*
X0080500Y0010300D03*
X0079700Y0008100D03*
X0080100Y0006900D03*
X0077700Y0006700D03*
X0077500Y0006500D03*
X0085300Y0009500D03*
X0086500Y0010100D03*
X0086700Y0009900D03*
D14*
X0088700Y0014300D03*
X0085300Y0015500D03*
X0085100Y0017900D03*
X0085100Y0019900D03*
X0083500Y0020100D03*
X0083300Y0020300D03*
X0083300Y0017900D03*
X0083300Y0017700D03*
X0083300Y0017500D03*
X0081900Y0013700D03*
X0080500Y0012500D03*
X0082100Y0008900D03*
X0080100Y0007100D03*
X0079700Y0006700D03*
X0079500Y0006500D03*
X0075500Y0007900D03*
X0067300Y0006700D03*
X0082900Y0029700D03*
X0082900Y0029900D03*
X0082700Y0030500D03*
X0082900Y0030900D03*
X0084700Y0032500D03*
X0086500Y0033100D03*
X0085700Y0027500D03*
X0086700Y0022700D03*
X0087700Y0022700D03*
X0090300Y0023700D03*
X0061700Y0055500D03*
D15*
X0063000Y0061700D03*
X0063000Y0061900D03*
X0063000Y0062100D03*
X0063200Y0063100D03*
X0063000Y0046100D03*
X0063000Y0045900D03*
X0063000Y0045700D03*
X0063000Y0045500D03*
X0086600Y0030900D03*
X0086600Y0030700D03*
X0086400Y0030100D03*
X0086400Y0029900D03*
X0066600Y0006900D03*
X0072200Y0090900D03*
X0072400Y0100300D03*
X0065400Y0100500D03*
X0065200Y0101300D03*
X0065200Y0101500D03*
X0072400Y0131500D03*
D16*
X0090800Y0026900D03*
X0083800Y0015300D03*
X0083400Y0015100D03*
X0085000Y0010100D03*
X0088000Y0014500D03*
X0078200Y0007100D03*
X0078200Y0006900D03*
D17*
X0067200Y0007100D03*
X0070600Y0073500D03*
X0064400Y0125100D03*
X0069800Y0146500D03*
X0069600Y0146700D03*
D18*
X0065200Y0136900D03*
X0065000Y0078300D03*
X0070400Y0075500D03*
X0067600Y0052100D03*
X0057800Y0023900D03*
X0057600Y0023700D03*
X0057800Y0019500D03*
X0057800Y0019300D03*
X0067400Y0007300D03*
X0078000Y0022300D03*
X0078000Y0022500D03*
X0078000Y0022700D03*
X0078600Y0021100D03*
X0078800Y0020700D03*
D19*
X0085100Y0015100D03*
X0088100Y0016700D03*
X0080500Y0007300D03*
X0078300Y0007300D03*
X0078100Y0007500D03*
X0078700Y0009100D03*
X0078700Y0009300D03*
X0088100Y0029500D03*
X0084500Y0031500D03*
X0081500Y0031500D03*
X0081500Y0031300D03*
X0073300Y0055500D03*
X0064700Y0082500D03*
X0061300Y0100300D03*
X0061300Y0123300D03*
D20*
X0065700Y0136500D03*
X0067500Y0051300D03*
X0068900Y0039500D03*
X0077500Y0025300D03*
X0077100Y0017700D03*
X0067300Y0007500D03*
X0058700Y0025900D03*
D21*
X0076600Y0007900D03*
X0078200Y0007900D03*
X0078200Y0007700D03*
X0078400Y0008100D03*
X0079800Y0007900D03*
X0080200Y0007700D03*
X0080400Y0007500D03*
X0080400Y0009100D03*
X0083200Y0010300D03*
X0085000Y0009900D03*
X0085200Y0009700D03*
X0085400Y0009300D03*
X0088400Y0012300D03*
X0085400Y0015300D03*
X0086400Y0017100D03*
X0087000Y0016900D03*
X0084400Y0024300D03*
X0084800Y0024500D03*
X0084400Y0031300D03*
D22*
X0078700Y0018900D03*
X0076300Y0016100D03*
X0067300Y0007700D03*
X0059500Y0016500D03*
X0059700Y0027300D03*
X0066500Y0126500D03*
D23*
X0068400Y0129100D03*
X0068400Y0132900D03*
X0066800Y0135900D03*
X0067600Y0065500D03*
X0067600Y0065300D03*
X0067600Y0049300D03*
X0067600Y0049100D03*
X0067800Y0035700D03*
X0067200Y0007900D03*
D24*
X0067300Y0008100D03*
X0067700Y0039900D03*
X0067700Y0055900D03*
X0067700Y0085300D03*
X0067700Y0090500D03*
X0067500Y0094900D03*
X0067700Y0104300D03*
X0067500Y0104700D03*
X0067500Y0104900D03*
X0067500Y0105100D03*
X0067500Y0111100D03*
X0067500Y0127300D03*
X0067300Y0135500D03*
X0067700Y0140700D03*
X0067500Y0145900D03*
D25*
X0061900Y0138700D03*
X0083500Y0028300D03*
X0083500Y0028100D03*
X0087500Y0023500D03*
X0087500Y0023300D03*
X0084100Y0018300D03*
X0084100Y0018100D03*
X0075900Y0008100D03*
D26*
X0068600Y0008300D03*
D27*
X0079000Y0008300D03*
X0083000Y0013100D03*
X0084200Y0012100D03*
X0087200Y0023100D03*
X0087000Y0023900D03*
D28*
X0068600Y0008500D03*
D29*
X0078900Y0008500D03*
X0078900Y0008700D03*
X0082300Y0009100D03*
X0082300Y0009300D03*
X0085900Y0015900D03*
X0086900Y0024100D03*
X0086900Y0024300D03*
X0086700Y0024500D03*
X0088100Y0032900D03*
X0061700Y0138900D03*
D30*
X0068400Y0008700D03*
D31*
X0068300Y0008900D03*
X0067500Y0034500D03*
D32*
X0062100Y0039500D03*
X0079100Y0008900D03*
X0082700Y0009700D03*
X0084500Y0011900D03*
X0088500Y0012100D03*
X0090900Y0023900D03*
X0090700Y0026700D03*
X0070700Y0071300D03*
X0061500Y0123500D03*
X0073300Y0156300D03*
D33*
X0068200Y0009100D03*
D34*
X0068100Y0009300D03*
D35*
X0068800Y0009700D03*
X0069000Y0009500D03*
D36*
X0082100Y0009500D03*
X0090700Y0024500D03*
X0087500Y0031300D03*
X0087700Y0031500D03*
X0067700Y0053700D03*
X0062700Y0071700D03*
X0072700Y0080700D03*
X0072500Y0093700D03*
X0069700Y0108100D03*
X0067700Y0116700D03*
X0067700Y0116900D03*
X0067700Y0117100D03*
X0067700Y0117700D03*
X0067700Y0117900D03*
X0067700Y0118100D03*
X0067700Y0118300D03*
X0067700Y0118500D03*
X0067700Y0118700D03*
X0067700Y0118900D03*
X0067700Y0119100D03*
X0067700Y0119300D03*
X0067700Y0119500D03*
X0062500Y0122100D03*
X0062300Y0123900D03*
X0072700Y0121500D03*
X0062700Y0108500D03*
D37*
X0068600Y0009900D03*
D38*
X0068500Y0010100D03*
X0067500Y0033100D03*
D39*
X0068500Y0010300D03*
D40*
X0083100Y0012700D03*
X0084300Y0013500D03*
X0084100Y0013900D03*
X0085500Y0010300D03*
X0085900Y0024900D03*
X0083500Y0028700D03*
X0085100Y0029500D03*
X0087700Y0032700D03*
X0062300Y0090700D03*
D41*
X0068300Y0010500D03*
D42*
X0080800Y0010500D03*
X0088200Y0011900D03*
X0069800Y0108300D03*
X0073200Y0140500D03*
D43*
X0064300Y0131900D03*
X0064300Y0131700D03*
X0064300Y0131500D03*
X0064300Y0131300D03*
X0064300Y0131100D03*
X0064300Y0130900D03*
X0064300Y0130700D03*
X0064300Y0130500D03*
X0062500Y0118900D03*
X0062500Y0118700D03*
X0062500Y0118500D03*
X0062500Y0118300D03*
X0062500Y0118100D03*
X0062500Y0117900D03*
X0062500Y0117700D03*
X0062500Y0117500D03*
X0062500Y0117300D03*
X0062500Y0117100D03*
X0062700Y0116700D03*
X0062500Y0107300D03*
X0062500Y0107100D03*
X0062500Y0106900D03*
X0062500Y0106700D03*
X0062500Y0106500D03*
X0062500Y0106300D03*
X0062500Y0106100D03*
X0069700Y0107900D03*
X0072500Y0093300D03*
X0072500Y0093100D03*
X0072700Y0083100D03*
X0072700Y0082900D03*
X0072700Y0080100D03*
X0072700Y0079900D03*
X0072700Y0079700D03*
X0072700Y0079500D03*
X0072900Y0079100D03*
X0072900Y0078900D03*
X0072900Y0078700D03*
X0072900Y0078500D03*
X0072900Y0078300D03*
X0072900Y0076900D03*
X0064500Y0077500D03*
X0062300Y0075300D03*
X0062500Y0074300D03*
X0062500Y0074100D03*
X0062500Y0073900D03*
X0062500Y0073700D03*
X0062500Y0073500D03*
X0062700Y0073300D03*
X0062700Y0073100D03*
X0062700Y0072900D03*
X0062700Y0072700D03*
X0062700Y0072500D03*
X0062700Y0072300D03*
X0090500Y0024900D03*
X0085100Y0010500D03*
D44*
X0069500Y0010700D03*
D45*
X0086000Y0010700D03*
X0086400Y0011700D03*
X0071600Y0048100D03*
X0067600Y0053300D03*
X0063600Y0048100D03*
X0070600Y0072300D03*
X0064600Y0081500D03*
X0065000Y0102100D03*
D46*
X0069500Y0010900D03*
D47*
X0086000Y0010900D03*
X0086200Y0011300D03*
X0072200Y0045300D03*
X0072000Y0047500D03*
X0063400Y0047700D03*
X0063200Y0045100D03*
X0063200Y0061300D03*
X0063400Y0063700D03*
X0063400Y0063900D03*
X0072000Y0063700D03*
X0072000Y0063500D03*
X0072200Y0062700D03*
X0072200Y0061500D03*
X0064600Y0081700D03*
X0065200Y0101700D03*
X0063200Y0124500D03*
X0063200Y0137900D03*
D48*
X0067600Y0030500D03*
X0067600Y0030300D03*
X0068000Y0012900D03*
X0069400Y0011100D03*
D49*
X0086100Y0011100D03*
X0086300Y0029700D03*
X0086700Y0031100D03*
X0072300Y0045500D03*
X0072300Y0045700D03*
X0072300Y0045900D03*
X0072300Y0046100D03*
X0072300Y0046300D03*
X0072300Y0046500D03*
X0072100Y0046700D03*
X0072100Y0046900D03*
X0072100Y0047100D03*
X0072100Y0047300D03*
X0063300Y0047300D03*
X0063300Y0047500D03*
X0063300Y0047100D03*
X0063100Y0046900D03*
X0063100Y0046700D03*
X0063100Y0046500D03*
X0063100Y0046300D03*
X0063100Y0045300D03*
X0063100Y0061500D03*
X0063100Y0062300D03*
X0063100Y0062500D03*
X0063100Y0062700D03*
X0063100Y0062900D03*
X0063300Y0063300D03*
X0063300Y0063500D03*
X0070700Y0072100D03*
X0072100Y0063300D03*
X0072100Y0063100D03*
X0072100Y0062900D03*
X0072300Y0062500D03*
X0072300Y0062300D03*
X0072300Y0062100D03*
X0072300Y0061900D03*
X0072300Y0061700D03*
X0072100Y0085100D03*
X0072300Y0102900D03*
X0072300Y0130700D03*
D50*
X0069300Y0011500D03*
X0069500Y0011300D03*
D51*
X0086300Y0011500D03*
X0072100Y0045100D03*
X0071900Y0047700D03*
X0071700Y0047900D03*
X0063500Y0047900D03*
X0072100Y0061300D03*
X0071900Y0063900D03*
X0071700Y0064100D03*
X0067700Y0069500D03*
X0063500Y0064100D03*
X0065100Y0101900D03*
X0069700Y0107500D03*
X0072100Y0130500D03*
X0072100Y0131700D03*
X0063700Y0156300D03*
D52*
X0067600Y0029700D03*
X0067600Y0029500D03*
X0069000Y0011900D03*
X0069200Y0011700D03*
D53*
X0069100Y0012100D03*
X0067700Y0029300D03*
D54*
X0070300Y0012300D03*
D55*
X0067700Y0012500D03*
X0067700Y0031300D03*
D56*
X0083000Y0012500D03*
X0087800Y0031700D03*
X0067800Y0117300D03*
X0067800Y0117500D03*
X0067800Y0119700D03*
X0067800Y0119900D03*
X0067800Y0120100D03*
X0067800Y0120300D03*
X0067800Y0120500D03*
X0067800Y0120700D03*
X0067800Y0120900D03*
X0067800Y0121100D03*
X0067800Y0121300D03*
X0062200Y0138500D03*
D57*
X0067600Y0030900D03*
X0067600Y0030700D03*
X0068000Y0012700D03*
D58*
X0083000Y0012900D03*
X0087200Y0015700D03*
X0087400Y0023700D03*
X0091000Y0024100D03*
X0083400Y0027900D03*
X0083600Y0028500D03*
X0068400Y0055500D03*
X0061800Y0123700D03*
X0066600Y0140500D03*
D59*
X0067600Y0029100D03*
X0068000Y0013700D03*
X0068400Y0013100D03*
D60*
X0068600Y0013300D03*
X0067800Y0028100D03*
X0068000Y0028700D03*
D61*
X0067900Y0028500D03*
X0067900Y0028300D03*
X0067700Y0027900D03*
X0068700Y0013500D03*
D62*
X0084100Y0013700D03*
X0084500Y0014900D03*
X0085900Y0024700D03*
X0083900Y0029100D03*
X0084300Y0029300D03*
X0087900Y0031900D03*
X0090900Y0024300D03*
X0067700Y0069900D03*
X0072700Y0080900D03*
X0072700Y0082300D03*
X0064500Y0082300D03*
X0067700Y0121500D03*
D63*
X0067900Y0013900D03*
D64*
X0068000Y0014100D03*
D65*
X0084200Y0014100D03*
D66*
X0070400Y0014300D03*
D67*
X0070200Y0014500D03*
D68*
X0070500Y0014700D03*
D69*
X0068100Y0014900D03*
X0068100Y0015100D03*
D70*
X0068100Y0015300D03*
X0068100Y0015500D03*
X0068100Y0015700D03*
D71*
X0061700Y0015900D03*
D72*
X0067800Y0035900D03*
X0067600Y0049900D03*
X0067600Y0050100D03*
X0067600Y0066100D03*
X0067600Y0066300D03*
X0078600Y0018700D03*
X0076200Y0015900D03*
X0066400Y0136100D03*
D73*
X0067500Y0135100D03*
X0067700Y0134300D03*
X0067700Y0134100D03*
X0067700Y0133900D03*
X0067700Y0128100D03*
X0067700Y0115900D03*
X0067700Y0115700D03*
X0067700Y0115500D03*
X0067500Y0114500D03*
X0067500Y0114300D03*
X0067500Y0114100D03*
X0067500Y0113900D03*
X0067500Y0113700D03*
X0067500Y0111700D03*
X0067500Y0111500D03*
X0067500Y0111300D03*
X0067700Y0100100D03*
X0067700Y0099100D03*
X0067700Y0098900D03*
X0067700Y0098700D03*
X0067700Y0098500D03*
X0067700Y0097100D03*
X0067700Y0096900D03*
X0067700Y0096700D03*
X0067700Y0096500D03*
X0067700Y0096300D03*
X0067700Y0096100D03*
X0067700Y0095900D03*
X0067700Y0095700D03*
X0067500Y0089300D03*
X0067500Y0089100D03*
X0067500Y0088900D03*
X0067500Y0088700D03*
X0067500Y0088500D03*
X0067700Y0088300D03*
X0067700Y0088100D03*
X0067700Y0087900D03*
X0067700Y0087700D03*
X0067700Y0087500D03*
X0067700Y0087300D03*
X0067700Y0087100D03*
X0067700Y0086900D03*
X0067700Y0086700D03*
X0067700Y0086500D03*
X0067700Y0060900D03*
X0067700Y0060700D03*
X0067700Y0060500D03*
X0067700Y0060300D03*
X0067700Y0060100D03*
X0067700Y0059900D03*
X0067700Y0059700D03*
X0067700Y0059500D03*
X0067700Y0059300D03*
X0067700Y0059100D03*
X0067700Y0058900D03*
X0067700Y0058700D03*
X0067700Y0058500D03*
X0067700Y0058300D03*
X0067700Y0058100D03*
X0067700Y0057500D03*
X0067700Y0057300D03*
X0067700Y0057100D03*
X0067700Y0056900D03*
X0067700Y0056700D03*
X0067700Y0056500D03*
X0067700Y0056300D03*
X0067700Y0044900D03*
X0067700Y0044700D03*
X0067700Y0044500D03*
X0067700Y0044300D03*
X0067700Y0044100D03*
X0067700Y0043900D03*
X0067700Y0043700D03*
X0067700Y0043500D03*
X0067700Y0043300D03*
X0067700Y0043100D03*
X0067700Y0042900D03*
X0067700Y0042700D03*
X0067700Y0042500D03*
X0067700Y0042300D03*
X0067700Y0042100D03*
X0067700Y0041900D03*
X0067700Y0041300D03*
X0067700Y0041100D03*
X0067700Y0040900D03*
X0067700Y0040700D03*
X0067700Y0040500D03*
X0067700Y0040300D03*
X0060900Y0016100D03*
X0067700Y0141100D03*
X0067700Y0141300D03*
X0067700Y0141500D03*
X0067700Y0141700D03*
X0067700Y0141900D03*
X0067700Y0142100D03*
X0067700Y0142300D03*
X0067700Y0142500D03*
X0067700Y0142700D03*
X0067700Y0142900D03*
X0067700Y0143100D03*
X0067700Y0143900D03*
X0067700Y0144100D03*
X0067700Y0144300D03*
X0067700Y0144500D03*
X0067700Y0144700D03*
X0067700Y0144900D03*
X0067700Y0145100D03*
X0067700Y0145300D03*
X0067700Y0152700D03*
X0067700Y0152900D03*
X0067700Y0153100D03*
X0067700Y0153300D03*
X0067700Y0153500D03*
X0067700Y0153700D03*
X0067700Y0153900D03*
X0067700Y0154100D03*
X0067700Y0154300D03*
X0067700Y0154500D03*
X0067700Y0155500D03*
D74*
X0068200Y0133300D03*
X0068200Y0128700D03*
X0067200Y0126900D03*
X0068200Y0103100D03*
X0067600Y0064900D03*
X0067600Y0055700D03*
X0067600Y0048900D03*
X0067600Y0048700D03*
X0060200Y0016300D03*
D75*
X0076300Y0016300D03*
X0077700Y0025900D03*
D76*
X0076800Y0017100D03*
X0076800Y0016900D03*
X0076600Y0016700D03*
X0076400Y0016500D03*
X0059400Y0027100D03*
X0059200Y0026900D03*
X0067600Y0050700D03*
X0067600Y0050900D03*
X0067600Y0066900D03*
X0067600Y0067100D03*
X0066200Y0126300D03*
X0066000Y0136300D03*
D77*
X0067600Y0067500D03*
X0067600Y0051500D03*
X0058600Y0025700D03*
X0058400Y0025300D03*
X0058800Y0016700D03*
X0077200Y0018100D03*
X0077400Y0025100D03*
X0077200Y0025700D03*
D78*
X0077400Y0024900D03*
X0077600Y0024500D03*
X0078000Y0023300D03*
X0067800Y0036300D03*
X0058200Y0024900D03*
X0058400Y0017100D03*
X0058400Y0016900D03*
X0067600Y0051700D03*
X0067600Y0067900D03*
X0065400Y0136700D03*
D79*
X0065100Y0077100D03*
X0065100Y0076900D03*
X0070100Y0076700D03*
X0058100Y0024700D03*
X0058100Y0018100D03*
X0058100Y0017900D03*
X0058100Y0017700D03*
X0058300Y0017500D03*
X0058300Y0017300D03*
X0077700Y0023700D03*
X0077900Y0023500D03*
X0078700Y0021700D03*
X0078700Y0021500D03*
D80*
X0077000Y0017500D03*
X0076800Y0017300D03*
X0059000Y0026300D03*
X0058800Y0026100D03*
X0067600Y0051100D03*
X0067600Y0067300D03*
X0066000Y0126100D03*
D81*
X0065700Y0125900D03*
X0067500Y0067700D03*
X0058500Y0025500D03*
X0058300Y0025100D03*
X0077300Y0025500D03*
X0077500Y0024700D03*
X0077700Y0024300D03*
X0077300Y0018300D03*
X0077100Y0017900D03*
D82*
X0078200Y0019700D03*
X0077600Y0023900D03*
X0077600Y0024100D03*
X0058000Y0024300D03*
X0058000Y0024500D03*
X0058000Y0018500D03*
X0058000Y0018300D03*
X0067600Y0051900D03*
X0067600Y0068100D03*
X0070200Y0076300D03*
X0070200Y0076500D03*
X0065000Y0077300D03*
X0065000Y0077500D03*
X0065400Y0125700D03*
D83*
X0067600Y0065900D03*
X0067600Y0065700D03*
X0067600Y0049700D03*
X0067600Y0049500D03*
X0078600Y0018500D03*
D84*
X0078700Y0020500D03*
X0078700Y0020900D03*
X0078700Y0021300D03*
X0078300Y0021900D03*
X0078300Y0022100D03*
X0077900Y0022900D03*
X0077900Y0023100D03*
X0057900Y0024100D03*
X0057900Y0019100D03*
X0057900Y0018900D03*
X0057900Y0018700D03*
X0070300Y0075700D03*
X0070300Y0075900D03*
X0070300Y0076100D03*
X0064900Y0077700D03*
X0064900Y0077900D03*
X0064900Y0078100D03*
D85*
X0066900Y0126700D03*
X0068500Y0129300D03*
X0068500Y0129500D03*
X0068500Y0129700D03*
X0068500Y0129900D03*
X0068500Y0132300D03*
X0068500Y0132500D03*
X0068500Y0132700D03*
X0076700Y0026500D03*
X0079300Y0019300D03*
X0079300Y0019100D03*
D86*
X0079300Y0019500D03*
D87*
X0057700Y0019700D03*
X0057700Y0019900D03*
X0057500Y0023500D03*
X0078100Y0019900D03*
X0067500Y0068300D03*
X0070300Y0075300D03*
X0064900Y0078500D03*
X0064900Y0078700D03*
X0065100Y0116500D03*
D88*
X0065000Y0125500D03*
X0064800Y0078900D03*
X0070400Y0075100D03*
X0070400Y0074900D03*
X0067600Y0052300D03*
X0057400Y0023300D03*
X0057400Y0020900D03*
X0057400Y0020700D03*
X0057600Y0020500D03*
X0057600Y0020300D03*
X0057600Y0020100D03*
X0078200Y0020100D03*
X0078200Y0020300D03*
D89*
X0067700Y0036500D03*
X0057300Y0023100D03*
X0057300Y0022900D03*
X0057300Y0021300D03*
X0057300Y0021100D03*
X0067500Y0068500D03*
X0070500Y0074500D03*
X0070500Y0074700D03*
X0064700Y0079100D03*
D90*
X0064800Y0079300D03*
X0057200Y0022700D03*
X0057200Y0021900D03*
X0057200Y0021700D03*
X0057200Y0021500D03*
X0070000Y0146100D03*
D91*
X0070100Y0150700D03*
X0064700Y0137100D03*
X0064700Y0125300D03*
X0069900Y0105900D03*
X0069900Y0105700D03*
X0070500Y0090700D03*
X0064700Y0079700D03*
X0064700Y0079500D03*
X0070500Y0074300D03*
X0070500Y0074100D03*
X0067500Y0052500D03*
X0057100Y0022500D03*
X0057100Y0022300D03*
X0057100Y0022100D03*
D92*
X0070700Y0071700D03*
X0072700Y0080500D03*
X0072700Y0082500D03*
X0072500Y0093500D03*
X0064500Y0082100D03*
X0062700Y0071900D03*
X0062700Y0110900D03*
X0062500Y0121900D03*
X0072700Y0121300D03*
X0072700Y0121100D03*
X0072700Y0120900D03*
X0072700Y0118700D03*
X0072700Y0118500D03*
X0072700Y0118300D03*
X0072700Y0118100D03*
X0072700Y0117900D03*
X0072700Y0117700D03*
X0072700Y0117500D03*
X0072700Y0117300D03*
X0072700Y0117100D03*
X0072700Y0116900D03*
X0072700Y0116700D03*
X0072700Y0116500D03*
X0090700Y0024700D03*
D93*
X0089100Y0025100D03*
X0089100Y0025300D03*
X0088300Y0026500D03*
X0067500Y0068900D03*
X0064700Y0080300D03*
X0069900Y0106500D03*
X0069300Y0146900D03*
X0069100Y0147100D03*
X0068900Y0147300D03*
X0069700Y0150100D03*
X0069900Y0150300D03*
D94*
X0069400Y0149900D03*
X0068400Y0147700D03*
X0068600Y0147500D03*
X0064200Y0137300D03*
X0069800Y0106700D03*
X0070600Y0073300D03*
X0070600Y0073100D03*
X0064200Y0061100D03*
X0067400Y0052900D03*
X0067600Y0036700D03*
X0089000Y0025500D03*
D95*
X0089100Y0025700D03*
X0089100Y0025900D03*
X0088900Y0026100D03*
X0088700Y0026300D03*
X0067500Y0069100D03*
X0064700Y0080500D03*
X0064700Y0080700D03*
X0070500Y0110900D03*
X0064100Y0124900D03*
X0071300Y0130100D03*
X0068300Y0147900D03*
X0068100Y0148100D03*
X0069100Y0149700D03*
D96*
X0067600Y0066700D03*
X0067600Y0066500D03*
X0067600Y0050500D03*
X0067600Y0050300D03*
X0077600Y0026100D03*
D97*
X0077300Y0026300D03*
X0067900Y0036100D03*
X0059100Y0026700D03*
X0059100Y0026500D03*
D98*
X0078300Y0026700D03*
D99*
X0077500Y0026900D03*
D100*
X0076500Y0027100D03*
X0067500Y0033900D03*
D101*
X0076000Y0027300D03*
D102*
X0069400Y0027500D03*
D103*
X0069400Y0027700D03*
D104*
X0069700Y0028900D03*
D105*
X0067600Y0029900D03*
X0067600Y0030100D03*
D106*
X0067700Y0053500D03*
X0067700Y0069700D03*
X0070700Y0071900D03*
X0064500Y0081900D03*
X0065300Y0100700D03*
X0065300Y0100900D03*
X0065300Y0101100D03*
X0069700Y0107700D03*
X0072500Y0102700D03*
X0072500Y0102500D03*
X0062900Y0124300D03*
X0064500Y0130100D03*
X0062900Y0138100D03*
X0072500Y0131300D03*
X0072500Y0131100D03*
X0072500Y0130900D03*
X0086500Y0030500D03*
X0086300Y0030300D03*
D107*
X0067600Y0031100D03*
D108*
X0067800Y0031500D03*
D109*
X0067800Y0031700D03*
D110*
X0067800Y0031900D03*
D111*
X0067700Y0032100D03*
D112*
X0087800Y0032100D03*
X0087800Y0032300D03*
X0087800Y0032500D03*
X0070600Y0071500D03*
X0072600Y0121700D03*
X0062400Y0140500D03*
X0063600Y0146100D03*
X0070000Y0156300D03*
D113*
X0067700Y0032300D03*
D114*
X0067700Y0032500D03*
D115*
X0067600Y0032700D03*
D116*
X0067600Y0032900D03*
D117*
X0067500Y0033300D03*
D118*
X0067500Y0033500D03*
D119*
X0067500Y0033700D03*
D120*
X0067600Y0034100D03*
D121*
X0067800Y0034300D03*
D122*
X0067500Y0034700D03*
D123*
X0067400Y0034900D03*
D124*
X0067400Y0035100D03*
D125*
X0067500Y0035300D03*
D126*
X0067600Y0035500D03*
X0067600Y0040100D03*
X0067600Y0041500D03*
X0067600Y0041700D03*
X0067600Y0056100D03*
X0067600Y0057700D03*
X0067600Y0057900D03*
X0067600Y0085500D03*
X0067600Y0085700D03*
X0067600Y0085900D03*
X0067600Y0086100D03*
X0067600Y0086300D03*
X0067600Y0089500D03*
X0067600Y0089700D03*
X0067600Y0089900D03*
X0067600Y0090100D03*
X0067600Y0090300D03*
X0067600Y0095100D03*
X0067600Y0095300D03*
X0067600Y0095500D03*
X0067600Y0112700D03*
X0067600Y0112900D03*
X0067600Y0113100D03*
X0067600Y0113300D03*
X0067600Y0113500D03*
X0067600Y0116100D03*
X0067600Y0116300D03*
X0067600Y0127500D03*
X0067600Y0127700D03*
X0067600Y0127900D03*
X0067800Y0128300D03*
X0067800Y0133700D03*
X0067600Y0134500D03*
X0067600Y0134700D03*
X0067600Y0134900D03*
X0067400Y0135300D03*
X0067600Y0140900D03*
X0067600Y0143300D03*
X0067600Y0143500D03*
X0067600Y0143700D03*
X0067600Y0145500D03*
X0067600Y0145700D03*
X0067600Y0151100D03*
X0067600Y0151300D03*
X0067600Y0151500D03*
X0067600Y0155700D03*
X0067600Y0155900D03*
X0067600Y0156100D03*
D127*
X0062600Y0138300D03*
X0062600Y0124100D03*
X0062600Y0121700D03*
X0062600Y0121500D03*
X0062600Y0121300D03*
X0062600Y0121100D03*
X0062600Y0120900D03*
X0062600Y0120700D03*
X0062600Y0120500D03*
X0062600Y0120300D03*
X0062600Y0120100D03*
X0062600Y0119900D03*
X0062600Y0119700D03*
X0062600Y0119500D03*
X0062600Y0119300D03*
X0062600Y0119100D03*
X0062600Y0116900D03*
X0062600Y0108300D03*
X0062600Y0108100D03*
X0062600Y0107900D03*
X0072800Y0118900D03*
X0072800Y0119100D03*
X0072800Y0119300D03*
X0072800Y0119500D03*
X0072800Y0119700D03*
X0072800Y0119900D03*
X0072800Y0120100D03*
X0072800Y0120300D03*
X0072800Y0120500D03*
X0072800Y0120700D03*
X0072600Y0082700D03*
X0072600Y0080300D03*
X0073000Y0078100D03*
X0073000Y0077900D03*
X0073000Y0077700D03*
X0073000Y0077500D03*
X0073000Y0077300D03*
X0073000Y0077100D03*
X0062400Y0076700D03*
X0062200Y0076500D03*
X0062200Y0076300D03*
X0062200Y0076100D03*
X0062200Y0075900D03*
X0062200Y0075700D03*
X0062200Y0075500D03*
X0062400Y0075100D03*
X0062400Y0074900D03*
X0062400Y0074700D03*
X0062400Y0074500D03*
X0062800Y0072100D03*
X0068600Y0036900D03*
D128*
X0067600Y0039700D03*
X0067800Y0103900D03*
X0067800Y0104100D03*
X0067600Y0104500D03*
X0067400Y0105300D03*
X0067400Y0105500D03*
X0067400Y0127100D03*
X0068000Y0128500D03*
X0068000Y0133500D03*
X0067600Y0150900D03*
D129*
X0063700Y0124700D03*
X0064700Y0081100D03*
X0071700Y0061100D03*
X0071300Y0048300D03*
X0064100Y0048300D03*
D130*
X0067700Y0048500D03*
X0067700Y0064500D03*
X0067700Y0064700D03*
X0067500Y0094700D03*
X0068100Y0103300D03*
X0067900Y0103500D03*
X0067900Y0103700D03*
X0067100Y0135700D03*
D131*
X0070100Y0150500D03*
X0069900Y0106300D03*
X0069900Y0106100D03*
X0064700Y0080100D03*
X0064700Y0079900D03*
X0070500Y0073700D03*
X0067500Y0068700D03*
X0067500Y0052700D03*
D132*
X0067500Y0053100D03*
X0064700Y0080900D03*
X0063900Y0137500D03*
D133*
X0063500Y0137700D03*
X0069700Y0107300D03*
X0065100Y0102300D03*
X0065300Y0100300D03*
X0063700Y0064300D03*
X0071500Y0064300D03*
D134*
X0067700Y0065100D03*
X0068300Y0128900D03*
X0068300Y0133100D03*
D135*
X0071600Y0130300D03*
X0069800Y0107100D03*
X0065000Y0102700D03*
X0070600Y0072700D03*
X0067600Y0069300D03*
D136*
X0070600Y0072500D03*
X0064600Y0081300D03*
X0065000Y0102500D03*
X0071800Y0131900D03*
D137*
X0071400Y0132100D03*
X0068000Y0148300D03*
X0068000Y0148500D03*
X0068000Y0148700D03*
X0068200Y0148900D03*
X0068400Y0149100D03*
X0068600Y0149300D03*
X0068800Y0149500D03*
X0069800Y0106900D03*
X0065000Y0102900D03*
X0070600Y0072900D03*
D138*
X0070600Y0073900D03*
X0070000Y0146300D03*
D139*
X0064400Y0132100D03*
X0064400Y0130300D03*
X0062600Y0107700D03*
X0062600Y0107500D03*
X0062600Y0105900D03*
X0062600Y0105700D03*
X0072600Y0102300D03*
X0072600Y0102100D03*
X0072600Y0101900D03*
X0072600Y0101700D03*
X0072600Y0101500D03*
X0072600Y0101300D03*
X0072600Y0100900D03*
X0072600Y0100700D03*
X0072600Y0100500D03*
X0072600Y0092900D03*
X0072600Y0092700D03*
X0072600Y0092500D03*
X0072600Y0092300D03*
X0072600Y0092100D03*
X0072600Y0091900D03*
X0072600Y0091700D03*
X0072600Y0091500D03*
X0072600Y0091300D03*
X0072400Y0091100D03*
X0072400Y0084900D03*
X0072400Y0084700D03*
X0072600Y0084500D03*
X0072600Y0084300D03*
X0072600Y0084100D03*
X0072600Y0083900D03*
X0072600Y0083700D03*
X0072600Y0083500D03*
X0072600Y0083300D03*
X0072800Y0079300D03*
X0063400Y0085100D03*
D140*
X0067600Y0097300D03*
X0067600Y0097500D03*
X0067600Y0097700D03*
X0067600Y0097900D03*
X0067600Y0098100D03*
X0067600Y0098300D03*
X0067600Y0099300D03*
X0067600Y0099500D03*
X0067600Y0099700D03*
X0067600Y0099900D03*
X0067600Y0111900D03*
X0067600Y0112100D03*
X0067600Y0112300D03*
X0067600Y0112500D03*
X0067600Y0114700D03*
X0067600Y0114900D03*
X0067600Y0115100D03*
X0067600Y0115300D03*
X0067600Y0151700D03*
X0067600Y0151900D03*
X0067600Y0152100D03*
X0067600Y0152300D03*
X0067600Y0152500D03*
X0067600Y0154700D03*
X0067600Y0154900D03*
X0067600Y0155100D03*
X0067600Y0155300D03*
M02*
